<?xml version="1.0" encoding="UTF-8"?>
<svg version="1.1" xmlns="http://www.w3.org/2000/svg" width="1024" height="1024">
<path d="M0 0 C337.92 0 675.84 0 1024 0 C1024 337.92 1024 675.84 1024 1024 C686.08 1024 348.16 1024 0 1024 C0 686.08 0 348.16 0 0 Z " fill="#FEFEFE" transform="translate(0,0)"/>
<path d="M0 0 C2.187403 -0.00542648 4.37480235 -0.01255208 6.56219482 -0.02124023 C12.47967478 -0.03941591 18.39687457 -0.03242915 24.31435919 -0.01972389 C30.52225314 -0.00956385 36.73012386 -0.01899814 42.9380188 -0.02526855 C54.03028582 -0.03300229 65.12242948 -0.02060521 76.21467675 -0.00023121 C86.24832393 0.01762877 96.28178587 0.01454027 106.31542969 -0.00390625 C117.99560642 -0.02529389 129.67566743 -0.03324906 141.35586083 -0.0214572 C147.52823906 -0.0152404 153.70049004 -0.01433639 159.87285995 -0.02760315 C165.67934272 -0.03921248 171.48547803 -0.03104316 177.29192352 -0.00802612 C179.41504211 -0.00276564 181.53819026 -0.00420682 183.66129684 -0.01307678 C199.09071485 -0.07156307 212.59222738 0.26542334 224.39501953 11.51757812 C224.95833984 12.0409375 225.52166016 12.56429687 226.10205078 13.10351562 C233.69243474 20.98214201 236.10645224 30.65234851 235.91845703 41.29052734 C235.61362132 47.55800603 234.28404702 52.91159688 231.39501953 58.51757812 C230.99412109 59.30519531 230.59322266 60.0928125 230.18017578 60.90429688 C224.86837744 69.97284535 216.13230246 75.29184819 206.48876953 78.92382812 C203.4488489 79.50724724 200.78979726 79.57628286 197.70166016 79.5546875 C196.70863892 79.54932983 195.71561768 79.54397217 194.69250488 79.53845215 C193.55524963 79.52811951 193.55524963 79.52811951 192.39501953 79.51757812 C192.40883632 103.59636181 192.45111565 127.67495073 192.5271101 151.75362206 C192.56173638 162.9342402 192.58711254 174.11473535 192.59057617 185.29541016 C192.59361934 195.04256254 192.61415736 204.78949576 192.6555441 214.53656352 C192.67684363 219.69574333 192.6894903 224.85461177 192.68117332 230.01383591 C192.673614 234.87474995 192.6895325 239.73503409 192.72307968 244.59583282 C192.73129028 246.37510192 192.73108975 248.15443392 192.72161674 249.93369675 C192.67592684 259.46249575 192.89261713 267.34079916 198.39501953 275.51757812 C199.25856075 276.94632268 200.12073749 278.3758937 200.98095703 279.80664062 C201.90607473 281.25488243 202.83596597 282.7000834 203.77001953 284.14257812 C204.83060259 285.800993 205.8904632 287.45987005 206.94970703 289.11914062 C207.50754883 289.99086914 208.06539062 290.86259766 208.64013672 291.76074219 C211.75814803 296.658987 214.82376973 301.58993193 217.89501953 306.51757812 C221.85904898 312.87262534 225.83421696 319.21955376 229.85351562 325.53979492 C233.87513891 331.86473675 237.83574675 338.2206385 241.70751953 344.63867188 C242.08385529 345.26188324 242.46019104 345.8850946 242.84793091 346.52719116 C244.71615684 349.62277985 246.57897891 352.72143319 248.43359375 355.82519531 C255.97712309 368.46045728 255.97712309 368.46045728 266.45751953 378.58007812 C267.45912109 379.35480469 268.46072266 380.12953125 269.49267578 380.92773438 C272.20251772 382.73165672 272.20251772 382.73165672 274.84814453 382.43945312 C278.61785206 381.07495776 282.27053149 379.51019365 285.93310547 377.8828125 C290.38530535 375.91908683 294.86837234 374.24128054 299.50439453 372.76757812 C302.43907814 370.82729144 302.58535642 368.92707691 303.39501953 365.51757812 C304.26912862 360.72857619 305.00743329 355.91903114 305.71923828 351.10351562 C306.96896049 343.34101348 308.81680235 335.5479795 315.39501953 330.51757812 C319.56812135 328.87093766 323.07615128 328.26261718 327.54882812 328.24291992 C328.74381927 328.23338791 329.93881042 328.2238559 331.17001343 328.21403503 C333.08736801 328.21540215 333.08736801 328.21540215 335.04345703 328.21679688 C336.38335298 328.21290392 337.72324771 328.20856803 339.06314087 328.20381165 C341.86553963 328.1963711 344.66781236 328.1966246 347.47021484 328.2019043 C351.04321314 328.20769193 354.61569186 328.19077511 358.18860435 328.16755962 C360.95460982 328.15275251 363.72049222 328.15196007 366.4865303 328.15506935 C368.43842099 328.15431335 370.39029272 328.14049632 372.34213257 328.12638855 C380.44367594 328.16839555 386.96747012 328.39469977 393.20751953 334.08007812 C397.28739712 339.64293055 398.39132363 346.83918018 399.25439453 353.53320312 C400.2055696 364.05628194 400.2055696 364.05628194 404.89746094 373.10253906 C408.47299071 375.35748639 412.35422386 376.19649971 416.45703125 377.02246094 C420.57040323 378.07334509 424.15062013 380.52077846 427.80908203 382.61132812 C431.18317047 383.79378812 432.20453141 382.98892406 435.39501953 381.51757812 C436.93607967 380.72333308 438.46343203 379.90201024 439.97705078 379.05664062 C440.8271875 378.58484375 441.67732422 378.11304688 442.55322266 377.62695312 C443.42914062 377.13710938 444.30505859 376.64726562 445.20751953 376.14257812 C448.59545188 374.25281422 451.98896288 372.37449661 455.39501953 370.51757812 C456.14122559 370.10878418 456.88743164 369.69999023 457.65625 369.27880859 C463.05642391 366.42952122 466.45154531 365.74246275 472.39501953 367.51757812 C478.95662727 371.41252923 484.29621362 377.12630369 489.63720703 382.49414062 C490.48678986 383.34181 491.33637268 384.18947937 492.21170044 385.06283569 C493.99401456 386.84379621 495.77383519 388.62725528 497.55126953 390.41308594 C500.27559817 393.14817881 503.01050407 395.87236934 505.74658203 398.59570312 C507.48159913 400.33204092 509.21599621 402.06899853 510.94970703 403.80664062 C511.76736542 404.62025055 512.5850238 405.43386047 513.42745972 406.27212524 C514.18229645 407.0332663 514.93713318 407.79440735 515.71484375 408.57861328 C516.3791037 409.24446442 517.04336365 409.91031555 517.72775269 410.59634399 C521.54202108 414.9916228 521.96292633 418.92630606 521.82080078 424.61132812 C521.06514798 429.76917846 518.34369753 433.31710286 515.39501953 437.51757812 C513.91264426 439.68029336 512.44381848 441.85069003 510.98999023 444.03271484 C509.98051202 445.54604765 508.95587322 447.04939303 507.9152832 448.54150391 C505.15326924 452.50903737 505.15326924 452.50903737 504.40283203 457.14257812 C505.61082846 460.03416013 506.84837774 462.88012772 508.20751953 465.70507812 C508.70896484 466.75050781 509.21041016 467.7959375 509.72705078 468.87304688 C510.00798584 469.43330566 510.2889209 469.99356445 510.57836914 470.57080078 C511.39501953 472.51757812 511.39501953 472.51757812 511.94799805 475.02294922 C512.73383926 478.049955 513.48004681 480.02781702 515.39501953 482.51757812 C520.29952915 484.80645191 525.42516053 485.76735394 530.70751953 486.76757812 C549.13638072 490.46894839 549.13638072 490.46894839 553.39501953 496.51757812 C555.23819557 500.38325804 555.65154425 503.47529144 555.66967773 507.74145508 C555.67920975 508.97656326 555.68874176 510.21167145 555.69856262 511.48420715 C555.69830111 512.82475818 555.69736368 514.16530923 555.69580078 515.50585938 C555.69969215 516.89202502 555.70402772 518.27818948 555.70878601 519.66435242 C555.7162354 522.566883 555.71596701 525.46929194 555.71069336 528.37182617 C555.70491067 532.07376183 555.72180631 535.7751952 555.74503803 539.47704792 C555.75984305 542.33998988 555.76063776 545.20281289 555.75752831 548.06578636 C555.75803847 549.42960794 555.76321836 550.79343672 555.77334023 552.15722084 C555.88097304 568.6915316 555.88097304 568.6915316 549.83251953 575.33007812 C543.15629434 580.2568198 533.32158678 581.34430241 525.39501953 583.20507812 C524.45529297 583.43001953 523.51556641 583.65496094 522.54736328 583.88671875 C515.65710635 585.51757812 515.65710635 585.51757812 513.39501953 585.51757812 C513.35376953 586.56945312 513.31251953 587.62132812 513.27001953 588.70507812 C512.62877671 594.07429036 510.2347105 598.56528147 507.86767578 603.36914062 C506.41745249 606.46961802 505.17605743 609.18131199 504.39501953 612.51757812 C505.3335117 615.31514232 505.3335117 615.31514232 507.15673828 617.92382812 C507.78128906 618.91511719 508.40583984 619.90640625 509.04931641 620.92773438 C509.72027344 621.94738281 510.39123047 622.96703125 511.08251953 624.01757812 C512.37988704 626.04768238 513.67551447 628.07889991 514.96923828 630.11132812 C515.55278076 631.00529297 516.13632324 631.89925781 516.73754883 632.8203125 C519.49592765 637.30912811 521.82393976 641.16379779 521.83251953 646.51757812 C521.85185547 647.32195313 521.87119141 648.12632812 521.89111328 648.95507812 C520.47578108 656.26577043 513.55785641 661.67719884 508.53564453 666.71289062 C507.67243591 667.58275604 506.80922729 668.45262146 505.91986084 669.34884644 C504.09683712 671.18197041 502.2711129 673.01241221 500.44287109 674.84033203 C497.65803769 677.62953952 494.88959046 680.43434173 492.12158203 683.24023438 C490.34391868 685.02376625 488.56530378 686.80635031 486.78564453 688.58789062 C485.96453186 689.42337433 485.14341919 690.25885803 484.29742432 691.11965942 C478.80992901 696.56426722 473.8804281 700.67127462 466.08251953 702.14257812 C459.73345625 701.0664657 454.75466148 697.54793297 449.30078125 694.25195312 C447.7861498 693.33825129 446.26984234 692.42732256 444.75195312 691.51904297 C443.24011078 690.61206626 441.73373138 689.69591105 440.23339844 688.77001953 C439.53520996 688.34897949 438.83702148 687.92793945 438.11767578 687.49414062 C437.18580444 686.92300537 437.18580444 686.92300537 436.23510742 686.34033203 C433.18418731 684.97618174 430.76965636 685.39027271 427.69360352 686.43554688 C426.68628174 686.85449219 425.67895996 687.2734375 424.64111328 687.70507812 C423.53960938 688.15625 422.43810547 688.60742188 421.30322266 689.07226562 C420.15789063 689.54921875 419.01255859 690.02617188 417.83251953 690.51757812 C415.56232873 691.45977733 413.29027303 692.39749943 411.01611328 693.33007812 C409.50682251 693.95849609 409.50682251 693.95849609 407.96704102 694.59960938 C405.39501953 695.51757812 405.39501953 695.51757812 402.39501953 695.51757812 C402.28544922 696.41476562 402.17587891 697.31195312 402.06298828 698.23632812 C401.54209865 702.33568721 400.98463117 706.4276023 400.39501953 710.51757812 C400.24226562 711.58274658 400.24226562 711.58274658 400.08642578 712.66943359 C397.42979833 730.51557446 397.42979833 730.51557446 389.95751953 736.45507812 C385.25031126 738.40684741 380.47407651 738.64459866 375.42480469 738.67871094 C374.26985504 738.68831848 373.1149054 738.69792603 371.92495728 738.70782471 C370.69046844 738.71207458 369.45597961 738.71632446 368.18408203 738.72070312 C366.90197845 738.7264032 365.61987488 738.73210327 364.29891968 738.73797607 C361.59071459 738.74844445 358.88253884 738.75431457 356.17431641 738.7578125 C352.72241539 738.76329509 349.2709092 738.78733526 345.81913185 738.81578445 C342.50329023 738.83900277 339.18750064 738.84086575 335.87158203 738.84570312 C334.64114166 738.85804993 333.41070129 738.87039673 332.14297485 738.88311768 C324.16189113 738.86249168 317.84348 738.50624387 311.58251953 733.08007812 C306.14546934 725.60640713 305.79420792 714.48578524 304.39648438 705.57324219 C303.90597732 702.45109355 303.39656536 699.5222156 302.39501953 696.51757812 C299.96014846 695.08461357 299.96014846 695.08461357 296.93408203 693.85351562 C295.82291016 693.37140625 294.71173828 692.88929688 293.56689453 692.39257812 C291.81119141 691.65007812 291.81119141 691.65007812 290.02001953 690.89257812 C288.85728516 690.38984375 287.69455078 689.88710938 286.49658203 689.36914062 C280.51233079 686.77082241 280.51233079 686.77082241 274.39501953 684.51757812 C272.02617589 685.69896297 269.87519586 686.92353516 267.64501953 688.33007812 C266.98252197 688.73589111 266.32002441 689.1417041 265.63745117 689.55981445 C261.57604763 692.07150347 257.62139543 694.71359964 253.69238281 697.42626953 C237.80266547 708.35175384 222.041613 712.99741645 202.67652893 712.89852905 C201.23572799 712.90199402 199.79492972 712.90676418 198.35413688 712.91271079 C194.43131416 712.92513545 190.5087128 712.91908973 186.5858897 712.90975213 C182.34107902 712.90292659 178.09630476 712.91346018 173.85150146 712.92169189 C165.55000492 712.93499457 157.24859 712.93216689 148.94709034 712.92345397 C142.19646487 712.91666369 135.4458622 712.91576651 128.6952343 712.91902542 C127.25103792 712.91971497 127.25103792 712.91971497 125.77766586 712.92041845 C123.82141304 712.92137768 121.86516022 712.92235032 119.90890741 712.92333622 C101.58760972 712.93188009 83.26635715 712.92207199 64.94506686 712.90593512 C49.24533774 712.892535 33.54567518 712.89485947 17.84594727 712.90869141 C-0.41069781 712.92476866 -18.66730338 712.93105396 -36.92395455 712.92185462 C-38.87309618 712.92089903 -40.82223782 712.91995591 -42.77137947 712.91902542 C-43.73024914 712.91856259 -44.68911882 712.91809977 -45.67704515 712.91762292 C-52.41428346 712.9150393 -59.15149659 712.91939048 -65.888731 712.92646408 C-74.10681585 712.93490325 -82.3248148 712.93254842 -90.54288989 712.91662185 C-94.73098874 712.90877121 -98.91894471 712.90559235 -103.10704231 712.91556931 C-106.94945041 712.92458387 -110.7915847 712.91947359 -114.63396836 712.90363665 C-116.66399013 712.89875857 -118.69403127 712.90842451 -120.72403234 712.91880834 C-145.63800117 712.76105996 -168.99733672 703.00169052 -186.67138672 685.54492188 C-205.13687836 666.69684964 -213.99903906 643.28728511 -213.97802734 616.94384766 C-213.49008856 595.67224065 -204.62150089 578.98371587 -193.44482422 561.41650391 C-190.97477233 557.5245989 -188.53671244 553.61309771 -186.09814453 549.70141602 C-184.212706 546.67737169 -182.32352137 543.65570062 -180.43310547 540.63476562 C-179.80210937 539.62639648 -179.17111328 538.61802734 -178.52099609 537.57910156 C-177.24365234 535.53808594 -175.96630859 533.49707031 -174.68896484 531.45605469 C-167.60365653 520.13331224 -160.53297424 508.80219333 -153.51196289 497.43945312 C-149.46146666 490.88871899 -145.38056087 484.35740816 -141.29248047 477.83007812 C-136.02432828 469.41627308 -130.79960604 460.97696473 -125.60498047 452.51757812 C-119.79285223 443.0525957 -113.93410266 433.61831272 -108.03857422 424.20507812 C-104.04124401 417.82115625 -100.06412207 411.425248 -96.10498047 405.01757812 C-91.52560116 397.60608499 -86.91680026 390.21360743 -82.29248047 382.83007812 C-76.34179211 373.32618949 -70.45347498 363.7852859 -64.58618164 354.22973633 C-59.51565062 345.97897416 -54.39187343 337.76276731 -49.24951172 329.55664062 C-43.99159255 321.15719742 -38.79414858 312.72141099 -33.61621094 304.27246094 C-30.22295445 298.74289486 -26.80425269 293.23183627 -23.33154297 287.75195312 C-22.64318359 286.66269531 -21.95482422 285.5734375 -21.24560547 284.45117188 C-19.93594143 282.38261337 -18.62111811 280.31730914 -17.30029297 278.25585938 C-16.71248047 277.32644531 -16.12466797 276.39703125 -15.51904297 275.43945312 C-15.00293457 274.63088867 -14.48682617 273.82232422 -13.95507812 272.98925781 C-11.04619972 267.66385366 -10.30999641 262.76662696 -10.32650757 256.7727356 C-10.31781897 255.63185999 -10.31781897 255.63185999 -10.30895483 254.4679364 C-10.29200568 251.92991541 -10.28908274 249.39207683 -10.28613281 246.85400391 C-10.27683112 245.03047747 -10.26666209 243.20695527 -10.25569153 241.38343811 C-10.22840463 236.43974521 -10.21324596 231.49608078 -10.2002635 226.5523324 C-10.18462727 221.38331495 -10.1578386 216.21435559 -10.13223267 211.04537964 C-10.08545364 201.26016955 -10.04870526 191.47494852 -10.01555979 181.68968379 C-9.97733225 170.54824549 -9.92792372 159.40686556 -9.87757564 148.26547647 C-9.77426879 125.34955362 -9.6850043 102.43359327 -9.60498047 79.51757812 C-10.35766708 79.52659653 -11.1103537 79.53561493 -11.885849 79.54490662 C-12.87460526 79.55192093 -13.86336151 79.55893524 -14.88208008 79.56616211 C-15.86164169 79.57518051 -16.84120331 79.58419891 -17.85044861 79.5934906 C-27.16374879 79.33682424 -34.98725525 74.24380545 -41.44873047 67.90820312 C-50.31324578 58.08015355 -53.42875569 48.60642771 -52.94873047 35.45898438 C-51.93160071 23.79666705 -46.18093358 15.14161465 -37.35498047 7.70507812 C-25.62978748 -0.55408537 -13.79141438 -0.05749798 0 0 Z " fill="#010101" transform="translate(322.60498046875,131.482421875)"/>
<path d="M0 0 C22.65559155 -0.70037447 41.7446241 9.07713605 61.16772461 19.43725586 C94.22647064 37.01332251 130.44201055 45.41634206 167.34375 35.16015625 C167.99762695 34.98887207 168.65150391 34.81758789 169.32519531 34.64111328 C178.60228713 32.16102787 186.72974021 28.1042278 195.08813477 23.46240234 C195.85826904 23.03652832 196.62840332 22.6106543 197.421875 22.171875 C198.10668945 21.78475342 198.79150391 21.39763184 199.49707031 20.9987793 C201.34375 20.16015625 201.34375 20.16015625 204.34375 20.16015625 C203.4465625 20.98515625 202.549375 21.81015625 201.625 22.66015625 C194.52791669 29.21448752 187.50090853 35.84328279 180.59375 42.59765625 C179.91505859 43.24669922 179.23636719 43.89574219 178.53710938 44.56445312 C173.59120666 49.45022328 170.72925809 53.56208074 169.96875 60.66015625 C170.67972066 67.29588241 174.02951463 72.56083871 177.65625 78.03515625 C178.04852783 78.64230469 178.44080566 79.24945312 178.8449707 79.875 C180.60984475 82.59429889 182.40820996 85.24736679 184.3359375 87.85546875 C188.4233339 93.41206755 188.4233339 93.41206755 188.03125 97.09765625 C187.474375 98.10828125 186.9175 99.11890625 186.34375 100.16015625 C185.56737613 101.69904018 184.79716968 103.24104253 184.03125 104.78515625 C183.59973633 105.59726562 183.16822266 106.409375 182.72363281 107.24609375 C181.26928565 110.11515833 181.26928565 110.11515833 180.47753906 113.16723633 C179.02538097 117.96522457 177.96813467 121.2859144 173.41333008 123.73730469 C169.75672593 124.81209587 166.16111409 125.57104879 162.40625 126.22265625 C159.89600599 126.7288055 157.38684136 127.24034409 154.87890625 127.7578125 C153.769104 127.95898682 152.65930176 128.16016113 151.51586914 128.36743164 C148.14473269 129.20989143 145.41655885 130.56258285 142.34375 132.16015625 C141.68375 132.16015625 141.02375 132.16015625 140.34375 132.16015625 C140.034375 132.94390625 139.725 133.72765625 139.40625 134.53515625 C138.34375 137.16015625 138.34375 137.16015625 137.34375 139.16015625 C137.23665757 141.25747608 137.19486508 143.35823547 137.18261719 145.45825195 C137.17765228 146.10400177 137.17268738 146.74975159 137.16757202 147.41506958 C137.15294536 149.55536967 137.14614697 151.6955956 137.140625 153.8359375 C137.13487315 155.32325747 137.12911542 156.81057741 137.12335205 158.29789734 C137.11284008 161.41922349 137.10699897 164.54052387 137.10351562 167.66186523 C137.09803599 171.65671907 137.0740205 175.65123119 137.04554367 179.64597797 C137.02689475 182.71981288 137.02171046 185.79356593 137.02017975 188.86745262 C137.01715684 190.33982393 137.00914046 191.81219393 136.99599457 193.28450966 C136.97888915 195.34789408 136.98082486 197.41044988 136.98730469 199.47387695 C136.98365906 200.64698929 136.98001343 201.82010162 136.97625732 203.02876282 C137.38130784 206.48018541 138.43269452 208.30582743 140.34375 211.16015625 C140.34375 211.82015625 140.34375 212.48015625 140.34375 213.16015625 C144.19639201 214.80404673 148.03854279 215.93229195 152.09375 216.97265625 C152.73554199 217.14877441 153.37733398 217.32489258 154.03857422 217.50634766 C157.65338423 218.49583783 161.24547225 219.34817478 164.9296875 220.0390625 C173.70567719 221.85665831 173.70567719 221.85665831 177.34375 224.16015625 C179.57515042 227.56690818 180.47566229 230.49055319 181.421875 234.44140625 C182.6282188 239.30767446 184.91631235 243.21995735 187.40234375 247.5390625 C188.34375 250.16015625 188.34375 250.16015625 187.8046875 252.54296875 C185.88531686 255.98141348 183.75668721 259.22595397 181.53125 262.47265625 C180.62989471 263.81489361 179.72884968 265.15733938 178.828125 266.5 C177.44294116 268.55129736 176.04301847 270.58348329 174.609375 272.6015625 C171.52534976 277.09154042 169.56385206 281.62200456 170.34375 287.16015625 C172.78885185 293.58717562 176.62332022 297.97216863 181.515625 302.6875 C182.1980426 303.36188614 182.88046021 304.03627228 183.58355713 304.73109436 C185.7442842 306.86303257 187.91828949 308.98076398 190.09375 311.09765625 C192.28073868 313.24217214 194.46488079 315.38951606 196.64678955 317.53919983 C198.0009573 318.87161271 199.3585855 320.20051918 200.71990967 321.52561951 C202.27954708 323.05192989 203.81450207 324.60339904 205.34375 326.16015625 C205.34375 326.49015625 205.34375 326.82015625 205.34375 327.16015625 C161.02818892 327.2517952 116.7126379 327.3222373 72.39700067 327.36441757 C67.16017477 327.36942014 61.92334906 327.37459746 56.68652344 327.37988281 C55.64400523 327.38093205 54.60148703 327.3819813 53.52737737 327.38306233 C36.66698981 327.40044775 19.80665704 327.43197515 2.94630194 327.46876743 C-14.36556188 327.50622874 -31.67739709 327.52840306 -48.98929977 327.53651023 C-59.66393099 327.54198724 -70.33840732 327.55925977 -81.01299083 327.59182212 C-88.3418959 327.61303412 -95.67072138 327.61934122 -102.99965489 327.61416176 C-107.22239878 327.61161035 -111.44487281 327.61540547 -115.66756821 327.63697815 C-119.54456668 327.65663859 -123.4211173 327.6573021 -127.29813766 327.64375183 C-129.34223905 327.64129749 -131.38633624 327.65837384 -133.43035889 327.67648149 C-151.50699429 327.56140505 -167.94588752 322.1696091 -181.65625 310.16015625 C-182.32140625 309.60070312 -182.9865625 309.04125 -183.671875 308.46484375 C-195.80005888 297.43488124 -203.02871284 281.13919145 -204.09375 264.90625 C-204.94938375 241.51120002 -194.88150235 224.3118989 -182.53125 205.19921875 C-178.50083992 198.95085434 -174.60162745 192.62594566 -170.71875 186.28515625 C-165.53063935 177.82139778 -160.30665526 169.38228498 -155.03125 160.97265625 C-150.18089378 153.23664506 -145.38942795 145.46840098 -140.65625 137.66015625 C-134.63072355 127.7202926 -128.4889951 117.85685237 -122.31640625 108.0078125 C-118.86984274 102.50728221 -115.44541874 96.99334073 -112.03125 91.47265625 C-111.50120361 90.61567139 -110.97115723 89.75868652 -110.42504883 88.87573242 C-108.83502824 86.30413362 -107.24553434 83.73221013 -105.65625 81.16015625 C-104.59902726 79.44917616 -103.54173543 77.73823876 -102.484375 76.02734375 C-101.95706787 75.17398438 -101.42976074 74.320625 -100.88647461 73.44140625 C-99.81883521 71.71629584 -98.74934403 69.99233006 -97.67797852 68.26953125 C-94.7030591 63.48466461 -91.76132482 58.68264306 -88.85546875 53.85546875 C-87.56000159 51.72780019 -86.26443067 49.6001948 -84.96875 47.47265625 C-84.38754395 46.49321045 -83.80633789 45.51376465 -83.20751953 44.50463867 C-69.13383389 21.54117308 -43.35375897 8.59529764 -17.84375 2.41015625 C-11.87084726 1.13334008 -6.08684782 0.36700112 0 0 Z " fill="#FEFEFE" transform="translate(336.65625,492.83984375)"/>
<path d="M0 0 C15.18 0 30.36 0 46 0 C47.95500815 8.47170197 49.84769882 16.891249 51.37304688 25.44140625 C52.31834208 30.24303126 53.32410438 33.52507928 57 37 C59.58849821 38.47971949 59.58849821 38.47971949 62.5 39.5 C63.56992187 39.91636719 64.63984375 40.33273437 65.7421875 40.76171875 C66.81726563 41.17035156 67.89234375 41.57898438 69 42 C70.87847794 42.76231861 72.75352298 43.53315233 74.625 44.3125 C75.60210938 44.7146875 76.57921875 45.116875 77.5859375 45.53125 C80.24407516 46.67479664 82.85956991 47.86170641 85.4765625 49.09375 C86.26466309 49.45944092 87.05276367 49.82513184 87.86474609 50.2019043 C89.41791025 50.92507152 90.96551251 51.66034654 92.50634766 52.40942383 C97.29420615 54.62456663 101.68439088 56.0803216 107 55 C110.33885545 53.7230631 113.39250145 52.0707556 116.5 50.3125 C117.30308594 49.87744141 118.10617187 49.44238281 118.93359375 48.99414062 C123.52184754 46.48435836 127.90946097 43.8113347 132.19335938 40.80932617 C134.58138369 39.73955582 135.55612121 40.15002685 138 41 C139.58197021 42.22120667 139.58197021 42.22120667 141.11621094 43.77563477 C141.98666046 44.64642418 141.98666046 44.64642418 142.87469482 45.5348053 C143.48838928 46.16398361 144.10208374 46.79316193 144.734375 47.44140625 C145.37240051 48.08367661 146.01042603 48.72594696 146.66778564 49.38768005 C148.70234118 51.43901726 150.72621379 53.50054273 152.75 55.5625 C154.12821491 56.95576234 155.50711325 58.34834898 156.88671875 59.74023438 C160.26579046 63.15236865 163.63531864 66.57367707 167 70 C165.7381209 73.40134451 164.29379509 76.29122994 162.25 79.28515625 C161.7240625 80.06310547 161.198125 80.84105469 160.65625 81.64257812 C160.1096875 82.44115234 159.563125 83.23972656 159 84.0625 C157.91455105 85.65611314 156.83114147 87.25111769 155.75 88.84765625 C155.27046875 89.54898682 154.7909375 90.25031738 154.296875 90.97290039 C150.80661908 96.42839642 149.84330741 100.55556988 151 107 C152.31510797 110.63799402 153.98887707 114.10976711 155.65283203 117.59863281 C158.94624287 124.57715005 161.35216355 131.70814478 163.56469727 139.0949707 C165.4587058 145.40836691 165.4587058 145.40836691 170 150 C180.18307 153.72646018 191.55512141 155.54238151 202 158 C202 173.51 202 189.02 202 205 C189 207.6875 189 207.6875 184.94921875 208.4987793 C173.82700048 210.82850624 173.82700048 210.82850624 165.5546875 218.11328125 C165.33039063 218.83902344 165.10609375 219.56476563 164.875 220.3125 C164.58109375 221.17746094 164.2871875 222.04242187 163.984375 222.93359375 C163.49710938 224.45146484 163.49710938 224.45146484 163 226 C162.06841897 228.63502338 161.09893066 231.25537706 160.125 233.875 C159.74734497 234.90633057 159.74734497 234.90633057 159.36206055 235.95849609 C157.74424025 240.29280188 155.86613541 244.34668099 153.6875 248.4375 C151.17451699 253.33748534 149.53409007 257.4477532 150 263 C153.29823732 270.57614909 158.0276965 277.18072875 162.75 283.9296875 C163.32492187 284.78304688 163.89984375 285.63640625 164.4921875 286.515625 C165.02183105 287.28165039 165.55147461 288.04767578 166.09716797 288.83691406 C167 291 167 291 166.23126221 292.94616699 C165.0352 294.94128389 163.84962015 296.39226832 162.20263672 298.02441406 C161.64220673 298.58469299 161.08177673 299.14497192 160.50436401 299.722229 C159.90222076 300.31404968 159.30007751 300.90587036 158.6796875 301.515625 C157.75169846 302.4393692 157.75169846 302.4393692 156.80496216 303.3817749 C154.83296186 305.34260336 152.85411263 307.29635301 150.875 309.25 C149.53469836 310.58026799 148.19484917 311.910992 146.85546875 313.2421875 C143.57553411 316.5001015 140.28944058 319.75168533 137 323 C132.32238515 321.50995334 128.22340584 319.60555932 124 317.125 C123.40960937 316.78597656 122.81921875 316.44695312 122.2109375 316.09765625 C118.37165149 313.87357647 114.69256947 311.46171298 111 309 C106.42826665 307.23029677 101.43351008 307.52888508 96.84130859 309.03808594 C95.78766113 309.51536133 94.73401367 309.99263672 93.6484375 310.484375 C92.46636719 311.00773437 91.28429687 311.53109375 90.06640625 312.0703125 C88.83548005 312.62920191 87.60501202 313.18910152 86.375 313.75 C78.23286971 317.42142445 70.27260637 320.73031798 61.6496582 323.10668945 C57.85407365 324.38633968 56.30119178 325.74659093 54 329 C52.24959413 332.80827073 51.42601407 336.49218208 50.7109375 340.61328125 C50.41388916 342.29997925 50.41388916 342.29997925 50.11083984 344.02075195 C49.8680127 345.43702881 49.62518555 346.85330566 49.375 348.3125 C48.59125 352.829375 47.8075 357.34625 47 362 C31.49 362 15.98 362 0 362 C-2.75 346.875 -2.75 346.875 -3.58886719 342.13623047 C-3.93933105 340.2705542 -3.93933105 340.2705542 -4.296875 338.3671875 C-4.52729492 337.09987793 -4.75771484 335.83256836 -4.99511719 334.52685547 C-6.25543747 330.10348645 -8.00604239 326.23656286 -12.015625 323.75 C-12.75296875 323.5025 -13.4903125 323.255 -14.25 323 C-15.56677734 322.53013672 -15.56677734 322.53013672 -16.91015625 322.05078125 C-17.92980469 321.70402344 -18.94945312 321.35726563 -20 321 C-22.56647479 320.07193223 -25.12858382 319.13586215 -27.6875 318.1875 C-28.70602051 317.8150415 -28.70602051 317.8150415 -29.74511719 317.43505859 C-35.88442791 315.14687491 -41.68025585 312.32111808 -47.5 309.3203125 C-52.42585651 307.46212109 -56.51567981 307.16200543 -61.6171875 308.8828125 C-62.73480469 309.49769531 -62.73480469 309.49769531 -63.875 310.125 C-64.71546875 310.58132813 -65.5559375 311.03765625 -66.421875 311.5078125 C-67.69804688 312.24644531 -67.69804688 312.24644531 -69 313 C-70.27617188 313.73863281 -70.27617188 313.73863281 -71.578125 314.4921875 C-74.86504339 316.43812385 -78.12032181 318.39332539 -81.265625 320.5625 C-81.96171875 321.036875 -82.6578125 321.51125 -83.375 322 C-83.98085938 322.433125 -84.58671875 322.86625 -85.2109375 323.3125 C-87 324 -87 324 -88.9160614 323.21957397 C-90.95502644 322.02631967 -92.4489113 320.82232314 -94.13208008 319.17431641 C-94.71560745 318.60677643 -95.29913483 318.03923645 -95.90034485 317.45449829 C-96.51717636 316.84302948 -97.13400787 316.23156067 -97.76953125 315.6015625 C-98.40992844 314.97019379 -99.05032562 314.33882507 -99.71012878 313.68832397 C-101.05840931 312.35452493 -102.40391793 311.01791882 -103.74682617 309.67871094 C-105.81043182 307.62705621 -107.89195356 305.59479077 -109.97460938 303.5625 C-111.28239464 302.2641728 -112.58907447 300.96473095 -113.89453125 299.6640625 C-114.52148392 299.05664215 -115.14843658 298.4492218 -115.79438782 297.82339478 C-117.51489258 296.08447266 -117.51489258 296.08447266 -120 293 C-119.54673254 289.41579928 -117.83982529 286.92879232 -115.875 283.9375 C-115.25109375 282.97714844 -114.6271875 282.01679687 -113.984375 281.02734375 C-113.32953125 280.02832031 -112.6746875 279.02929688 -112 278 C-110.70417354 276.00269267 -109.41232329 274.00279842 -108.125 272 C-107.55007813 271.113125 -106.97515625 270.22625 -106.3828125 269.3125 C-103.5951379 264.65062609 -103.33485282 260.28984075 -104 255 C-105.22664517 251.31793736 -106.89706051 247.90780918 -108.625 244.4375 C-112.44595555 236.47941356 -115.73892663 228.61299648 -118.453125 220.21484375 C-120.34205824 216.28910624 -122.1387839 213.94608475 -126 212 C-130.68926409 210.57990154 -135.43804822 209.65406367 -140.25 208.75 C-142.79724342 208.2466525 -145.3441383 207.74153692 -147.890625 207.234375 C-149.01500977 207.02006836 -150.13939453 206.80576172 -151.29785156 206.58496094 C-154 206 -154 206 -156 205 C-156 189.49 -156 173.98 -156 158 C-141.3125 154.6875 -141.3125 154.6875 -136.7043457 153.6628418 C-135.49866943 153.38609619 -134.29299316 153.10935059 -133.05078125 152.82421875 C-131.20480347 152.40789185 -131.20480347 152.40789185 -129.3215332 151.9831543 C-125.06258174 150.72252971 -121.88439642 149.54202453 -119.62890625 145.609375 C-119.27699219 144.66578125 -118.92507813 143.7221875 -118.5625 142.75 C-118.15 141.68007813 -117.7375 140.61015625 -117.3125 139.5078125 C-116.879375 138.35023438 -116.44625 137.19265625 -116 136 C-115.27504241 134.16790608 -114.54993707 132.33585625 -113.81665039 130.50708008 C-113.31212845 129.24798017 -112.8113361 127.98737967 -112.31420898 126.7253418 C-111.04454392 123.5177453 -109.72407252 120.35052617 -108.28515625 117.21484375 C-104.12668794 108.45111259 -104.12668794 108.45111259 -104 99 C-106.91636833 92.50509276 -110.67933593 86.82418089 -114.75 81 C-115.35199219 80.12988281 -115.95398438 79.25976562 -116.57421875 78.36328125 C-118.04490881 76.23895116 -119.52021428 74.11799926 -121 72 C-119.61370756 68.87675456 -118.00488429 66.75809293 -115.5859375 64.35546875 C-114.90660156 63.67806641 -114.22726562 63.00066406 -113.52734375 62.30273438 C-112.46193359 61.25569336 -112.46193359 61.25569336 -111.375 60.1875 C-110.68792969 59.50107422 -110.00085938 58.81464844 -109.29296875 58.10742188 C-105.2364032 54.085105 -101.06473693 50.2526099 -96.74072266 46.52026367 C-94.74479714 44.77711807 -92.8541886 42.95531753 -91 41.0625 C-90.13375 40.18271484 -90.13375 40.18271484 -89.25 39.28515625 C-88.8375 38.86105469 -88.425 38.43695312 -88 38 C-84.3111487 39.34577656 -81.26308949 41.01107301 -78.0234375 43.22265625 C-76.64671875 44.15368164 -76.64671875 44.15368164 -75.2421875 45.10351562 C-74.29601562 45.74998047 -73.34984375 46.39644531 -72.375 47.0625 C-70.48912629 48.34820714 -68.60119575 49.63090402 -66.7109375 50.91015625 C-65.87868652 51.47871338 -65.04643555 52.04727051 -64.18896484 52.63305664 C-59.99551778 55.25173946 -55.82651757 55.5921422 -51 55 C-48.46494215 53.88525358 -46.33337324 52.80023746 -44 51.375 C-33.57355409 45.41153952 -22.40775345 41.67368331 -11 38 C-7.8682175 37.34220585 -7.8682175 37.34220585 -6.90234375 34.89453125 C-5.8481353 31.51284961 -5.18301725 28.17571843 -4.5625 24.6875 C-3.08084358 16.44949031 -1.54290063 8.22880335 0 0 Z " fill="#FDFDFD" transform="translate(652,484)"/>
<path d="M0 0 C50.82 0 101.64 0 154 0 C154.03867187 20.16544922 154.03867187 20.16544922 154.078125 40.73828125 C154.10329181 49.25587394 154.12946063 57.77344403 154.16015625 66.29101562 C154.20868949 79.80997561 154.25313588 93.32886043 154.27099609 106.84790039 C154.28402315 116.69429031 154.31101487 126.54052724 154.35461307 136.38683099 C154.37720401 141.59797769 154.39291209 146.80893586 154.39188385 152.02013588 C154.39113585 156.9310467 154.40914301 161.8415411 154.44116783 166.75234413 C154.44964504 168.54893086 154.45143165 170.34556441 154.44580269 172.14216232 C154.41954059 181.81742002 154.6548117 190.11393568 159 199 C159.51309156 200.05362968 159.51309156 200.05362968 160.03654861 201.12854481 C160.96457526 202.95967335 161.96370144 204.72805594 163 206.5 C163.38534912 207.1717627 163.77069824 207.84352539 164.16772461 208.53564453 C168.12534275 215.35836847 172.36628743 222.00117777 176.609375 228.6484375 C181.26487947 235.96064602 185.77791183 243.36130108 190.30493164 250.75341797 C190.94293701 251.79385254 191.58094238 252.83428711 192.23828125 253.90625 C192.85525879 254.91945313 193.47223633 255.93265625 194.10791016 256.9765625 C195.39909453 259.03979183 196.73452187 261.07582346 198.10693359 263.0859375 C198.7664502 264.05789063 199.4259668 265.02984375 200.10546875 266.03125 C200.7089917 266.89298828 201.31251465 267.75472656 201.93432617 268.64257812 C203 271 203 271 202.29248047 273.21020508 C192.14301844 287.26492856 166.23031671 294.94530987 150.1875 297.8125 C118.64039884 302.78830917 90.71827186 292.41087877 63.37890625 277.48046875 C33.32210694 261.15823336 1.04977294 254.65450853 -32.34765625 264.53515625 C-36.92623249 265.94452869 -41.46811258 267.44750198 -46 269 C-44.68058998 265.45334709 -43.11113159 262.36911336 -41.0859375 259.17578125 C-40.49756104 258.24233887 -39.90918457 257.30889648 -39.30297852 256.34716797 C-38.66674561 255.34572754 -38.0305127 254.34428711 -37.375 253.3125 C-36.01617136 251.15542379 -34.65812594 248.99785404 -33.30078125 246.83984375 C-32.77432259 246.00413849 -32.77432259 246.00413849 -32.23722839 245.15155029 C-10.35442172 214.4687363 -10.35442172 214.4687363 -0.84178162 179.29948425 C-0.83684364 178.53158784 -0.83190566 177.76369142 -0.82681805 176.97252542 C-0.81148066 174.40380488 -0.80309264 171.83510927 -0.79467773 169.26635742 C-0.78509626 167.42327659 -0.77508601 165.58019794 -0.76467896 163.73712158 C-0.73765309 158.73552505 -0.71663095 153.7339191 -0.69667697 148.73229003 C-0.67480314 143.50455877 -0.64742128 138.27685646 -0.62062073 133.04914856 C-0.57071275 123.15056805 -0.52576688 113.25197146 -0.48259836 103.35335952 C-0.42397587 89.97677296 -0.35769916 76.60022448 -0.29184818 63.22367191 C-0.18830314 42.14914027 -0.09499425 21.07457594 0 0 Z " fill="#FEFEFE" transform="translate(337,211)"/>
<path d="M0 0 C3.62495532 3.04262449 6.98538502 6.3005204 10.31103516 9.66552734 C11.03806641 10.38224609 11.76509766 11.09896484 12.51416016 11.83740234 C28.58920746 28.6719007 36.89921204 52.73769336 36.66259766 75.75830078 C35.86412571 101.80844801 26.59013027 124.16486744 8.31103516 142.66552734 C7.72837891 143.32037109 7.14572266 143.97521484 6.54541016 144.64990234 C-6.72581772 159.26165829 -29.63334215 168.28788287 -49.05224609 169.57177734 C-50.35742188 169.61818359 -50.35742188 169.61818359 -51.68896484 169.66552734 C-52.81689453 169.71708984 -53.94482422 169.76865234 -55.10693359 169.82177734 C-81.83666789 170.4865583 -106.06570194 159.73593996 -125.31396484 141.54052734 C-143.70686636 122.51064222 -152.38098491 97.10636975 -151.96240234 70.88427734 C-151.01589872 45.73164629 -138.95219744 22.02517816 -120.99755859 4.66552734 C-108.71959023 -5.97122359 -94.38587759 -13.25655407 -78.68896484 -17.33447266 C-77.90779297 -17.56005859 -77.12662109 -17.78564453 -76.32177734 -18.01806641 C-50.80558883 -24.41918636 -20.33726182 -16.06872985 0 0 Z " fill="#FEFEFE" transform="translate(732.68896484375,590.33447265625)"/>
<path d="M0 0 C3.61868429 3.09962466 7.04591892 6.36113206 10.43798828 9.70654297 C11.30294922 10.55861328 12.16791016 11.41068359 13.05908203 12.28857422 C33.60221895 33.66497411 43.89282781 62.70396286 43.87548828 92.01904297 C43.87589111 92.71974915 43.87629395 93.42045532 43.87670898 94.14239502 C43.77320552 125.55302102 31.97160406 153.99595244 9.88330078 176.36279297 C-12.04497867 197.91571258 -41.68232642 210.27702088 -72.43701172 211.08154297 C-104.63087346 210.18101537 -132.18339663 198.75371264 -155.56201172 176.70654297 C-156.23876953 176.09423828 -156.91552734 175.48193359 -157.61279297 174.85107422 C-172.74679055 160.62693622 -182.04913513 141.4420152 -187.56201172 121.70654297 C-187.90361328 120.49224609 -188.24521484 119.27794922 -188.59716797 118.02685547 C-192.9807119 99.06547938 -192.55438522 77.25889509 -186.56201172 58.70654297 C-186.3423877 58.01818359 -186.12276367 57.32982422 -185.89648438 56.62060547 C-179.82938852 38.14022292 -169.85770015 22.83173068 -156.56201172 8.70654297 C-155.97291016 8.04138672 -155.38380859 7.37623047 -154.77685547 6.69091797 C-115.00903433 -36.31076995 -43.63489257 -36.13280101 0 0 Z M-147.24951172 32.83154297 C-156.30784785 44.38873045 -161.93411704 57.57604563 -165.56201172 71.70654297 C-165.80693359 72.62306641 -166.05185547 73.53958984 -166.30419922 74.48388672 C-171.48273215 97.50352967 -165.71519244 123.30935723 -153.24951172 143.01904297 C-149.23541898 149.10263853 -144.7129874 154.55556728 -139.56201172 159.70654297 C-138.79244141 160.47611328 -138.02287109 161.24568359 -137.22998047 162.03857422 C-119.45642106 178.89330665 -95.81229265 187.07397902 -71.53076172 186.85888672 C-44.50981015 185.82166515 -21.16082744 174.64466802 -2.64404297 155.19482422 C14.81767403 136.01008858 21.64197338 109.59755332 20.6171875 84.13085938 C18.94509641 61.50979056 8.31364182 40.60924192 -7.56201172 24.70654297 C-8.6815625 23.56958984 -8.6815625 23.56958984 -9.82373047 22.40966797 C-28.03569914 4.95025998 -52.48855314 -2.898197 -77.3984375 -2.71313477 C-105.2437181 -1.8314526 -129.19032695 12.17007984 -147.24951172 32.83154297 Z " fill="#010101" transform="translate(748.56201171875,573.29345703125)"/>
<path d="M0 0 C1.36116267 -0.00935994 1.36116267 -0.00935994 2.74982357 -0.01890898 C5.78538564 -0.03484229 8.8201451 -0.02223322 11.85571289 -0.00964355 C14.03403186 -0.01506451 16.21234716 -0.02218702 18.39065552 -0.03088379 C24.30382904 -0.04912307 30.21672347 -0.04204695 36.12990189 -0.02936745 C42.31707768 -0.01924301 48.50422952 -0.02863159 54.69140625 -0.03491211 C65.08183077 -0.04219011 75.47214157 -0.03259671 85.86254883 -0.0135498 C97.87664818 0.00821915 109.89043102 0.00116791 121.90452862 -0.02085543 C132.21805744 -0.03900498 142.5315045 -0.04156989 152.84504414 -0.03110075 C159.00553653 -0.02486342 165.16590129 -0.02403691 171.3263855 -0.0372467 C177.11800731 -0.04879799 182.90927892 -0.04079225 188.70086288 -0.01766968 C190.82691745 -0.01237879 192.95300147 -0.01390282 195.07904434 -0.02272034 C197.98034075 -0.0336441 200.88051355 -0.01995008 203.78173828 0 C205.04506941 -0.01338433 205.04506941 -0.01338433 206.33392239 -0.02703905 C211.65834403 0.04402266 214.65210291 1.00348239 218.89086914 4.50793457 C222.82823979 8.85976529 223.52509956 12.42526355 223.27758789 18.10949707 C222.49703243 22.95051783 219.85338506 25.63932265 216.32836914 28.82043457 C211.81230286 31.94694199 207.54228458 31.65626672 202.25639343 31.65510559 C201.36376559 31.65878228 200.47113774 31.66245897 199.55146056 31.66624707 C196.54829868 31.6772958 193.54517137 31.68112975 190.54199219 31.68493652 C188.39367564 31.69120019 186.24536017 31.69784691 184.0970459 31.70484924 C178.25196954 31.72226597 172.40690137 31.73281251 166.56180549 31.74105477 C162.91187189 31.74620273 159.26194085 31.7522785 155.61200905 31.7585659 C144.19752578 31.7776185 132.78304898 31.79185039 121.36855286 31.80017787 C108.18221899 31.80995632 94.99605271 31.83629155 81.80977792 31.87667876 C71.62371923 31.906809 61.43770868 31.92164375 51.25160629 31.92495888 C45.16481554 31.92731258 39.07820384 31.93631485 32.9914608 31.96142006 C27.26640338 31.98465207 21.5416435 31.98895354 15.81655121 31.97865868 C13.71467158 31.97816205 11.61277753 31.98451973 9.51094246 31.99821472 C6.64236815 32.01586072 3.77487014 32.0088633 0.90629578 31.99568176 C0.07370151 32.00665101 -0.75889276 32.01762025 -1.61671716 32.0289219 C-6.91838729 31.97006624 -9.88636998 30.99218954 -14.10913086 27.50793457 C-18.13357636 23.04841389 -19.48712727 19.71682869 -19.38647461 13.63293457 C-18.74037577 8.68254348 -16.37254525 5.54531856 -12.58714294 2.43714142 C-8.16109173 -0.01793007 -4.96818632 -0.05263533 0 0 Z " fill="#FEFEFE" transform="translate(312.109130859375,155.4920654296875)"/>
<path d="M0 0 C8.19410258 5.71717804 12.96602667 12.92458046 14.8046875 22.74609375 C15.82769875 31.05806019 13.92575936 39.11734653 9.1171875 45.99609375 C2.3994816 54.14625164 -4.9303893 57.49710349 -15.2890625 59.0625 C-23.55237442 59.5874235 -32.10439105 55.70169928 -38.41015625 50.57421875 C-44.79650836 44.034147 -47.67840162 36.32873122 -48.5078125 27.37109375 C-47.69239229 17.91221934 -44.23047804 9.61129589 -37.34375 2.95703125 C-26.48131605 -5.82812449 -12.19743509 -6.96686239 0 0 Z " fill="#020202" transform="translate(417.1953125,270.25390625)"/>
<path d="M0 0 C7.79310136 5.41949831 13.2405081 12.56272526 15 22 C16.11066707 31.45567908 13.99999189 39.77186562 8.16796875 47.39453125 C2.36002346 53.56905296 -4.36841316 57.53451653 -12.8828125 58.23828125 C-23.04777944 58.47097326 -30.0202155 56.77579645 -37.875 50.1875 C-44.99118997 43.38507502 -47.43365027 36.22984706 -48.3125 26.5625 C-47.41197904 16.29656111 -43.43425656 9.43425656 -36.25 2.25 C-25.16767991 -5.42237545 -11.92111083 -6.91995988 0 0 Z " fill="#010101" transform="translate(451,352)"/>
<path d="M0 0 C2.4375 2.125 2.4375 2.125 4 5 C4 8.77910616 3.83289714 11.00693033 1.375 13.9375 C-1.97682053 15.43699866 -4.36980218 15.45377473 -8 15 C-10.4375 13.4375 -10.4375 13.4375 -12 11 C-12.5 7.5 -12.5 7.5 -12 4 C-8.31256631 -0.67074935 -5.74002152 -1.60720603 0 0 Z " fill="#F8F8F8" transform="translate(405,290)"/>
<path d="M0 0 C4.7693662 1.41314554 4.7693662 1.41314554 6.375 4 C7.3125 6.875 7.3125 6.875 7.375 10 C5.36363937 13.77130118 4.01140532 14.79172189 -0.0625 16.125 C-3.625 16 -3.625 16 -6.5625 13.9375 C-8.625 11 -8.625 11 -9.25 8 C-8.11814245 2.56708374 -5.59993233 0 0 0 Z " fill="#FAFAFA" transform="translate(435.625,371)"/>
</svg>
