<?xml version="1.0" encoding="UTF-8"?>
<svg version="1.1" xmlns="http://www.w3.org/2000/svg" width="1024" height="1024">
<path d="M0 0 C337.92 0 675.84 0 1024 0 C1024 337.92 1024 675.84 1024 1024 C686.08 1024 348.16 1024 0 1024 C0 686.08 0 348.16 0 0 Z " fill="#FEFEFE" transform="translate(0,0)"/>
<path d="M0 0 C1.09650879 0.2266333 2.19301758 0.4532666 3.32275391 0.68676758 C38.22694777 8.16186565 68.87842738 26.82101716 88.77734375 56.92041016 C96.20702361 68.79780971 103.02212228 83.02985595 105 96.875 C99.06 96.875 93.12 96.875 87 96.875 C86.34 95.225 85.68 93.575 85 91.875 C72.68452501 62.49131742 53.92887655 39.43467148 24.19140625 26.5078125 C11.27337782 21.26015804 -7.06085899 14.42271533 -21 17.875 C-24.48759731 19.7521568 -27.69553554 21.9803875 -30.9375 24.25 C-32.31977783 25.1946814 -32.31977783 25.1946814 -33.72998047 26.15844727 C-36.49525667 28.05182618 -39.24851722 29.96165032 -42 31.875 C-43.51366764 32.91891953 -45.02793936 33.96196399 -46.54296875 35.00390625 C-47.23076416 35.47739502 -47.91855957 35.95088379 -48.62719727 36.4387207 C-51.17682377 38.19195892 -53.72908824 39.94133354 -56.28222656 41.68945312 C-57.91392905 42.81559686 -59.53162333 43.96195849 -61.1484375 45.109375 C-62.55996094 46.07617188 -62.55996094 46.07617188 -64 47.0625 C-64.78375 47.61292969 -65.5675 48.16335938 -66.375 48.73046875 C-69.96264358 50.29472406 -73.18602478 50.46511615 -77 49.875 C-79.55091762 48.79430126 -81.61497328 47.75123613 -83.9375 46.3125 C-84.59790283 45.92263916 -85.25830566 45.53277832 -85.9387207 45.13110352 C-87.44119218 44.24003028 -88.93852768 43.34026115 -90.43164062 42.43359375 C-93.32453943 40.67805516 -96.23187394 38.94789063 -99.140625 37.21875 C-101.32314074 35.91704228 -103.50542937 34.61495372 -105.6875 33.3125 C-106.77514648 32.66458496 -107.86279297 32.01666992 -108.98339844 31.34912109 C-117.87446201 26.02288353 -117.87446201 26.02288353 -122 23.1328125 C-130.98452448 16.94494147 -137.75117819 16.82261588 -148.36328125 18.36328125 C-167.92470902 22.04091992 -187.94465953 29.55015844 -203 42.875 C-203.81726563 43.57367188 -204.63453125 44.27234375 -205.4765625 44.9921875 C-226.07762113 62.97921452 -240.22667954 88.9159716 -242.18945312 116.54150391 C-242.21974609 117.46882324 -242.25003906 118.39614258 -242.28125 119.3515625 C-242.31806885 120.46716553 -242.3548877 121.58276855 -242.39282227 122.73217773 C-242.42819092 123.97555908 -242.46355957 125.21894043 -242.5 126.5 C-242.52935135 127.48143478 -242.52935135 127.48143478 -242.55929565 128.48269653 C-243.03188773 144.42266244 -243.28959871 160.36814379 -243.5625 176.3125 C-243.58473633 177.5846637 -243.60697266 178.85682739 -243.62988281 180.1675415 C-243.75722469 187.55135095 -243.86912597 194.93513388 -243.95733643 202.31951904 C-243.98585731 204.69638175 -244.01691776 207.07321529 -244.05047607 209.45001221 C-244.09563092 212.85338899 -244.12616403 216.25658666 -244.15234375 219.66015625 C-244.1750106 221.16478676 -244.1750106 221.16478676 -244.19813538 222.69981384 C-244.2477891 234.03516152 -241.93982053 242.94025953 -234.4375 251.69921875 C-226.30664142 259.45871601 -215.76049756 260.46654337 -205.03637695 260.37670898 C-203.7894104 260.38211197 -202.54244385 260.38751495 -201.25769043 260.39308167 C-197.87118831 260.40337257 -194.4856796 260.39595578 -191.09926629 260.37937045 C-187.53827639 260.3654086 -183.97731302 260.37199225 -180.41630554 260.37550354 C-174.44241132 260.37819589 -168.46871917 260.36481094 -162.49487305 260.34155273 C-155.60497816 260.31491242 -148.71542004 260.31321109 -141.82549125 260.3249411 C-135.17100838 260.3357459 -128.51664638 260.32951304 -121.86217308 260.31538582 C-119.04138491 260.30965306 -116.220686 260.3096871 -113.39989662 260.31445122 C-109.45828274 260.32014037 -105.51700157 260.30083877 -101.57543945 260.27905273 C-100.41523788 260.28355438 -99.25503632 260.28805603 -98.05967712 260.29269409 C-90.36908102 260.22219833 -84.27006539 259.63638855 -78.1875 254.5 C-73.40216006 248.75759207 -71.54156452 243.80619002 -71.6640625 236.3828125 C-72.36792337 231.12840928 -74.42471125 225.99762528 -78.58180046 222.57123566 C-84.10834565 218.78985284 -88.38954991 218.17358504 -94.99267578 218.29492188 C-95.95956329 218.29246964 -96.92645081 218.2900174 -97.92263794 218.28749084 C-100.00912324 218.28532794 -102.09564543 218.29452644 -104.18204117 218.3139801 C-107.48640876 218.34412491 -110.78948553 218.3429975 -114.09396362 218.3338623 C-121.10447381 218.31996875 -128.11455979 218.34466994 -135.125 218.375 C-143.25820267 218.41014913 -151.39077886 218.42938543 -159.52404404 218.40687561 C-162.77607485 218.4062584 -166.02697054 218.43542807 -169.27883911 218.46569824 C-171.27459923 218.46362367 -173.27035855 218.46015821 -175.26611328 218.45507812 C-176.61751404 218.47979942 -176.61751404 218.47979942 -177.99621582 218.50502014 C-182.30553871 218.46356891 -185.12481351 218.22493823 -188.54586792 215.46374512 C-192.28315887 211.52145783 -192.13198819 209.49717329 -192.16113281 204.13378906 C-192.16858017 203.094422 -192.16858017 203.094422 -192.17617798 202.03405762 C-192.19081034 199.7362367 -192.19760444 197.4384849 -192.203125 195.140625 C-192.20887694 193.54359943 -192.21463467 191.94657387 -192.22039795 190.34954834 C-192.23091193 186.99702635 -192.23675154 183.64452835 -192.24023438 180.29199219 C-192.24571054 176.00354416 -192.26971788 171.71541501 -192.29820633 167.4270668 C-192.31686714 164.12586555 -192.3220402 160.82474044 -192.32357025 157.52349091 C-192.32659111 155.94309502 -192.33460051 154.36270029 -192.34775543 152.78235626 C-192.36488342 150.56592387 -192.36291933 148.35026148 -192.35644531 146.13378906 C-192.36191376 144.24421478 -192.36191376 144.24421478 -192.36749268 142.31646729 C-191.96322882 138.53064809 -190.96006372 136.11786139 -189 132.875 C-186.64994965 131.09220318 -184.99234991 130.87386062 -182.0625 130.4375 C-177.87264062 131.03605134 -176.64335563 132.63256566 -174 135.875 C-173.39872742 138.90596008 -173.39872742 138.90596008 -173.43237305 142.31762695 C-173.4327507 143.59857742 -173.43312836 144.87952789 -173.43351746 146.19929504 C-173.45904691 147.58730044 -173.48512682 148.9752958 -173.51171875 150.36328125 C-173.52105119 151.79101827 -173.52816527 153.21877136 -173.53315735 154.64653015 C-173.55219399 158.39357168 -173.60126367 162.13963493 -173.65667725 165.8862915 C-173.70794315 169.71377327 -173.7306869 173.54141405 -173.75585938 177.36914062 C-173.80938768 184.87153841 -173.89465748 192.37313182 -174 199.875 C-172.88215118 199.86611755 -171.76430237 199.85723511 -170.61257935 199.8480835 C-160.04955965 199.76680281 -149.48660386 199.70694123 -138.92334175 199.66775131 C-133.49335769 199.64692564 -128.06362721 199.61869987 -122.63378906 199.57324219 C-117.38827923 199.52960524 -112.14301247 199.50582518 -106.89733505 199.49549103 C-104.90156099 199.48813163 -102.90579941 199.47376073 -100.91012955 199.45207977 C-86.92559432 199.30626989 -75.73336104 199.8780234 -65 209.875 C-55.92476696 219.3770845 -53.43340836 229.10873297 -53.51611328 241.93676758 C-53.72511735 248.18623963 -54.88646394 253.38567337 -58 258.875 C-58.33 259.535 -58.66 260.195 -59 260.875 C-51.74 260.875 -44.48 260.875 -37 260.875 C-38.3775836 252.30336872 -39.81859056 243.75366123 -41.4296875 235.22265625 C-41.62161179 234.20611465 -41.62161179 234.20611465 -41.81741333 233.16903687 C-42.4581001 229.78293341 -43.10374695 226.39788154 -43.75439453 223.01367188 C-45.08905844 216.00384571 -46.30482968 208.99645026 -47.375 201.94140625 C-49.18452702 190.13355935 -51.61167334 178.45175007 -54 166.75 C-63.37783858 120.65146065 -63.37783858 120.65146065 -62 113.875 C-59.71451982 111.34894296 -57.9786271 110.36431355 -55 108.875 C-52.15183484 108.77033162 -49.3277546 108.72720589 -46.47904968 108.72782898 C-45.5865707 108.72415229 -44.69409171 108.7204756 -43.7745679 108.7166875 C-40.76596598 108.70562133 -37.75739856 108.70180188 -34.7487793 108.69799805 C-32.59898773 108.69173567 -30.44919724 108.68508907 -28.29940796 108.67808533 C-22.44607533 108.66065591 -16.59275088 108.65011852 -10.73939872 108.6418798 C-7.08529057 108.63673434 -3.43118498 108.63065844 0.22292137 108.62436867 C11.64755079 108.60531219 23.07217372 108.59108136 34.49681598 108.5827567 C47.70014995 108.57297803 60.90331655 108.54664386 74.10659152 108.50625581 C84.30195617 108.47613507 94.49727272 108.46129171 104.69268101 108.45797569 C110.78672049 108.4556208 116.88058125 108.44660331 122.97457314 108.42151451 C128.70618032 108.39829921 134.43749029 108.39397424 140.16913223 108.40427589 C142.27465616 108.40477294 144.38019439 108.39840307 146.4856739 108.38471985 C149.35684178 108.36710219 152.2269313 108.37405717 155.09809875 108.38725281 C155.93428798 108.37628356 156.77047722 108.36531432 157.63200551 108.35401267 C161.55615694 108.39765362 163.55438275 108.60404342 166.98187542 110.68812275 C169.74501956 113.68231702 170.31633117 116.72295624 171.0078125 120.61328125 C171.16428253 121.39705643 171.32075256 122.1808316 171.48196411 122.98835754 C171.82284924 124.70416544 172.15502895 126.42172013 172.47961426 128.14068604 C173.01300531 130.9433351 173.57774858 133.73803593 174.15136719 136.53271484 C175.4160243 142.70469882 176.64707491 148.88311904 177.875 155.0625 C178.31846413 157.28736508 178.76198684 159.51221848 179.20556641 161.73706055 C182.3184683 177.36814354 185.38957254 193.00667256 188.3828125 208.66113281 C188.99838668 211.86659901 189.62303866 215.07018091 190.25 218.2734375 C190.62505292 220.20311472 191.00005641 222.13280154 191.375 224.0625 C191.54306152 224.91303955 191.71112305 225.7635791 191.88427734 226.63989258 C192.55948215 230.1389134 193 233.2970095 193 236.875 C199.93 236.875 206.86 236.875 214 236.875 C215.485 232.42 215.485 232.42 217 227.875 C217.68666339 225.90302991 218.37972044 223.93326583 219.08129883 221.96655273 C219.46212112 220.89771347 219.84294342 219.82887421 220.23530579 218.72764587 C220.63847519 217.59935867 221.04164459 216.47107147 221.45703125 215.30859375 C222.09520027 213.52014793 222.09520027 213.52014793 222.7462616 211.6955719 C223.64424709 209.17993252 224.54262616 206.66443785 225.44165039 204.14916992 C226.35119197 201.60428277 227.25972333 199.05903899 228.16723633 196.51342773 C246.12691181 146.14207385 246.12691181 146.14207385 257 133.875 C257.51949219 133.26140625 258.03898438 132.6478125 258.57421875 132.015625 C270.07701156 119.38283491 288.43272666 111.07937374 305.23669434 109.587677 C308.54154785 109.46718952 311.83361449 109.43278731 315.140625 109.44140625 C316.34708679 109.4361644 317.55354858 109.43092255 318.79656982 109.42552185 C321.33100623 109.41914409 323.86547241 109.42038298 326.39990234 109.42895508 C330.22678747 109.43744848 334.05216848 109.40866642 337.87890625 109.37695312 C354.33445081 109.32845195 369.85162693 110.01708366 384.8125 117.5625 C385.51060791 117.9042627 386.20871582 118.24602539 386.92797852 118.59814453 C406.40429678 128.46709974 421.51676478 145.33767668 429 165.875 C433.61631101 180.28886619 435.04096118 194.97572528 436.2038269 210.00087738 C436.50896065 213.92661148 436.83019533 217.8510211 437.15234375 221.77539062 C437.25365349 223.00970133 437.25365349 223.00970133 437.35700989 224.2689476 C438.13609954 233.66094423 439.02986001 243.04155769 439.9375 252.421875 C440.06313828 253.72151436 440.06313828 253.72151436 440.1913147 255.04740906 C440.70470153 260.35098417 441.22157629 265.6542148 441.73962402 270.95733643 C442.43228093 278.05390353 443.12020227 285.15093263 443.80895996 292.24787903 C444.06022778 294.83597083 444.3118469 297.42402832 444.56347656 300.01208496 C445.7516733 312.24502699 446.91160473 324.48044015 448.04907227 336.71820068 C448.60985734 342.74785668 449.18098299 348.77553713 449.80412292 354.79910278 C451.42132795 371.93817535 448.8816764 388.66397828 437.9296875 402.48828125 C425.16988208 417.1376049 411.5152 426.36559366 392 428.875 C388.22749203 429.02632821 384.45741607 429.02714162 380.68223572 429.02890015 C379.53724234 429.0332824 378.39224896 429.03766465 377.21255881 429.0421797 C373.37339363 429.05554151 369.5342514 429.06174056 365.69506836 429.06787109 C362.94370753 429.07525048 360.19235147 429.08403794 357.44099426 429.09265137 C349.18683038 429.11712094 340.93266059 429.13178939 332.67847165 429.14471143 C330.3472456 429.14842571 328.01602013 429.15239869 325.68479466 429.1564641 C311.20449336 429.18169012 296.72419106 429.20374027 282.24387264 429.21619225 C278.89362014 429.21912183 275.54336766 429.22208353 272.19311523 429.22509766 C271.36044766 429.22584371 270.52778008 429.22658976 269.66988016 429.22735842 C256.16500146 429.2400268 242.66025397 429.2732743 229.15543669 429.31489949 C215.28883954 429.35728975 201.42230969 429.38088341 187.55564791 429.38611281 C179.77038121 429.38952895 171.98532006 429.40130893 164.20011711 429.43421555 C157.57430902 429.46217652 150.94874868 429.4732326 144.32288616 429.46202008 C140.94174029 429.45682411 137.56153512 429.46249035 134.18039322 429.48448563 C130.51675078 429.50702707 126.85442781 429.4989506 123.19078064 429.48300171 C122.11997204 429.4968838 121.04916345 429.51076588 119.9459061 429.52506864 C112.75422815 429.44761393 112.75422815 429.44761393 108.83455276 426.47177601 C106.95364332 423.80938296 106.38965867 422.78497928 106.58911133 419.59692383 C106.65782944 418.42669174 106.65782944 418.42669174 106.72793579 417.2328186 C107.15354179 413.54434463 107.77776367 409.95006934 108.57421875 406.32421875 C108.73992874 405.5441597 108.90563873 404.76410065 109.07637024 403.96040344 C109.42738338 402.32164266 109.78309036 400.68388075 110.14331055 399.04711914 C110.68323648 396.58196605 111.20089482 394.11285592 111.71679688 391.64257812 C114.44916397 378.86742397 118.1121986 367.48419919 126 356.875 C127.0828125 355.3590625 127.0828125 355.3590625 128.1875 353.8125 C137.59984468 342.98680005 153.00320274 335.85271173 167.20701599 334.69513321 C173.49349813 334.38147918 179.78526333 334.38314542 186.078125 334.36328125 C188.10122753 334.34640843 190.12431975 334.32825474 192.1473999 334.30888367 C197.43427302 334.26166015 202.72110429 334.23167268 208.00811768 334.20544434 C213.41825623 334.17549836 218.82825096 334.12901671 224.23828125 334.08398438 C234.82544517 333.99826631 245.41263895 333.93078192 256 333.875 C255.855625 333.15054687 255.71125 332.42609375 255.5625 331.6796875 C255.376875 330.71289062 255.19125 329.74609375 255 328.75 C254.814375 327.79867188 254.62875 326.84734375 254.4375 325.8671875 C253.9924468 322.82334148 253.97014536 319.94629562 254 316.875 C252.81907156 316.87651888 251.63814313 316.87803776 250.42142898 316.87960267 C198.39153447 316.94625959 146.36163622 317.00797332 94.33171082 317.04437256 C93.54435781 317.04492479 92.75700481 317.04547702 91.94579263 317.04604598 C74.83567482 317.05801681 57.72555654 317.06909765 40.61543756 317.07926132 C32.22498887 317.08425079 23.8345403 317.08943699 15.4440918 317.09472656 C14.60912853 317.0952496 13.77416526 317.09577263 12.91390007 317.09631152 C-14.16368035 317.11336566 -41.24122744 317.14341741 -68.31878766 317.18018888 C-96.1378246 317.21789879 -123.95684309 317.24253702 -151.77590517 317.25065996 C-155.70256081 317.25181263 -159.6292164 317.25311518 -163.55587196 317.25450897 C-164.32871597 317.25477866 -165.10155997 317.25504836 -165.89782349 317.25532622 C-178.35290738 317.26005838 -190.80793432 317.27862484 -203.26299496 317.30232814 C-215.77581053 317.32584744 -228.28856949 317.33487938 -240.80140641 317.32900551 C-247.58471183 317.32622559 -254.36783964 317.33047525 -261.15111732 317.3518219 C-267.35470285 317.37120254 -273.55800718 317.37232528 -279.7616053 317.35859558 C-282.01202148 317.35689721 -284.26245479 317.36204287 -286.51283696 317.37453273 C-289.56045711 317.39047088 -292.60704799 317.38200416 -295.65465069 317.36719131 C-296.53834472 317.37769937 -297.42203875 317.38820742 -298.3325114 317.3990339 C-302.42507664 317.35375634 -304.48177233 317.20185454 -308.02158433 314.96923804 C-310.7708041 312.05907072 -311.12867314 310.48961167 -311.19287109 306.59643555 C-311.20893402 305.71179123 -311.22499695 304.82714691 -311.24154663 303.91569519 C-311.28599715 299.86803948 -311.32706141 295.82054778 -311.35009766 291.77270508 C-311.36665841 289.63782857 -311.39394988 287.50300754 -311.43212891 285.3684082 C-311.48689333 282.2908857 -311.50877113 279.21466289 -311.5234375 276.13671875 C-311.54610687 275.18447922 -311.56877625 274.23223969 -311.59213257 273.25114441 C-311.57868007 269.03088597 -311.35146293 266.49211539 -309.23608398 262.77783203 C-304.21386205 259.8247428 -299.42619445 260.1484754 -293.69921875 260.16796875 C-292.50770706 260.15284744 -291.31619537 260.13772614 -290.08857727 260.12214661 C-286.28802662 260.07920579 -282.48826927 260.07042477 -278.6875 260.0625 C-276.10870277 260.03936089 -273.52992448 260.01399679 -270.95117188 259.98632812 C-264.63410711 259.9234123 -258.31735316 259.88852896 -252 259.875 C-252.62487556 258.95838593 -252.62487556 258.95838593 -253.26237488 258.02325439 C-253.80638443 257.21797302 -254.35039398 256.41269165 -254.91088867 255.58300781 C-255.45122238 254.78630676 -255.99155609 253.98960571 -256.54826355 253.16876221 C-258.28885718 250.41860194 -259.36856399 247.7354147 -260.3125 244.625 C-260.61800781 243.65046875 -260.92351562 242.6759375 -261.23828125 241.671875 C-262.6002163 236.67112886 -263.12650104 232.19123931 -263.1262207 226.99267578 C-263.12751134 225.97773355 -263.12751134 225.97773355 -263.12882805 224.94228745 C-263.12946451 222.69324818 -263.12187624 220.44433434 -263.11328125 218.1953125 C-263.11169825 217.41007328 -263.11011524 216.62483406 -263.10848427 215.81579971 C-263.07000701 197.57780718 -262.73972267 179.34628252 -262.31030273 161.11376953 C-262.20460915 156.59688973 -262.11502306 152.07982946 -262.02869701 147.56254387 C-261.95761794 143.99478394 -261.87481768 140.42736102 -261.78899574 136.85992813 C-261.75085341 135.19466488 -261.71684477 133.52930022 -261.68758202 131.86385727 C-261.05439828 96.75922904 -250.67198497 64.51927994 -226 38.875 C-225.12214844 37.94558594 -224.24429688 37.01617187 -223.33984375 36.05859375 C-201.45340566 13.43337293 -167.83811239 -0.86764077 -136.3125 -1.9375 C-127.05355081 -1.90561786 -120.95093637 1.2698198 -113.39550781 6.31201172 C-109.52308615 8.83863662 -105.5354487 11.16930849 -101.56103516 13.53100586 C-98.39157636 15.41580789 -95.23369857 17.31862932 -92.078125 19.2265625 C-91.08103516 19.82114258 -90.08394531 20.41572266 -89.05664062 21.02832031 C-86.93334569 22.31111607 -84.82890786 23.62543921 -82.74023438 24.96386719 C-81.68642578 25.62290039 -80.63261719 26.28193359 -79.546875 26.9609375 C-78.60166992 27.56728027 -77.65646484 28.17362305 -76.68261719 28.79833984 C-74.05180345 30.15986098 -74.05180345 30.15986098 -71.39746094 29.21630859 C-69.21633312 27.99603199 -67.14107379 26.76042194 -65.09375 25.328125 C-64.35995117 24.81942871 -63.62615234 24.31073242 -62.87011719 23.78662109 C-62.08797852 23.23828613 -61.30583984 22.68995117 -60.5 22.125 C-58.80794767 20.95478006 -57.1152131 19.78554611 -55.421875 18.6171875 C-54.53951172 18.00713867 -53.65714844 17.39708984 -52.74804688 16.76855469 C-48.10139102 13.56675451 -43.43162493 10.40039183 -38.75 7.25 C-37.88181641 6.65864258 -37.01363281 6.06728516 -36.11914062 5.45800781 C-23.4677852 -3.03366071 -14.59404575 -3.03089686 0 0 Z " fill="#101010" transform="translate(420,443.125)"/>
<path d="M0 0 C1.06598923 -0.01606293 2.13197845 -0.03212585 3.23027039 -0.04867554 C8.14308831 -0.09359681 13.05577367 -0.13426728 17.96875 -0.15722656 C20.54143385 -0.17367987 23.11407404 -0.20082628 25.68652344 -0.23925781 C50.8623318 -0.61290664 70.62990025 2.36276909 89.67504883 20.19287109 C106.44762982 37.31376447 108.790875 58.53107852 110.80004883 81.31787109 C111.00090617 83.52073647 111.20251858 85.7235331 111.40478516 87.92626953 C112.02036562 94.66337458 112.6231318 101.40159194 113.22406006 108.14001465 C113.73077626 113.82088529 114.2401874 119.5015135 114.74975586 125.18212891 C114.84477638 126.24156645 114.93979691 127.30100399 115.03769684 128.3925457 C115.53564137 133.94366277 116.03390988 139.49475062 116.53253174 145.04580688 C116.73548268 147.30560222 116.93842454 149.56539836 117.14135742 151.82519531 C117.29281597 153.51156192 117.29281597 153.51156192 117.44733429 155.23199654 C118.05438882 161.99548016 118.65812796 168.75924993 119.25911427 175.52327538 C119.64221641 179.83122955 120.02719419 184.13901497 120.41248894 188.44677353 C120.59220612 190.46111422 120.77109632 192.47552891 120.94906807 194.49002457 C121.89782504 205.22529256 122.93738236 215.93147798 124.27693176 226.62567139 C125.82943337 240.53636192 124.32641922 253.77839782 115.67504883 265.19287109 C107.91415748 274.88600083 96.91838294 281.03476859 84.67504883 283.19287109 C80.98578654 283.46276661 77.31243025 283.45467346 73.61462402 283.43338013 C71.97503353 283.4359434 71.97503353 283.4359434 70.30232 283.43855846 C66.65110497 283.44184451 63.00007497 283.43086407 59.34887695 283.41992188 C56.72704065 283.41935757 54.10520404 283.4196747 51.48336792 283.42080688 C45.84459021 283.42185348 40.20585893 283.41560049 34.5670929 283.40433121 C26.41448035 283.38804856 18.26189016 283.38286538 10.10926312 283.38035522 C-3.11914654 283.37598246 -16.34753149 283.36268471 -29.57592773 283.34375 C-42.42293169 283.32538037 -55.26992892 283.31122917 -68.11694336 283.30273438 C-68.9093824 283.30220893 -69.70182143 283.30168348 -70.51827377 283.30114211 C-74.49387161 283.29853196 -78.46946949 283.29600456 -82.44506741 283.2935183 C-115.40504666 283.27279883 -148.3649956 283.2375847 -181.32495117 283.19287109 C-180.70102957 280.0072426 -180.07201574 276.82263944 -179.44213867 273.63818359 C-179.26706787 272.74397705 -179.09199707 271.84977051 -178.91162109 270.9284668 C-176.11955788 256.85208342 -172.39887533 242.25937092 -160.32495117 233.19287109 C-147.92985908 226.07776628 -147.92985908 226.07776628 -140.93569946 226.05484009 C-140.03848679 226.04938675 -139.14127411 226.04393341 -138.21687317 226.03831482 C-137.2349852 226.03727249 -136.25309723 226.03623016 -135.24145508 226.03515625 C-133.68739708 226.02753517 -133.68739708 226.02753517 -132.10194397 226.01976013 C-129.84951247 226.00905117 -127.59707029 226.00043306 -125.34462357 225.9936409 C-121.78082948 225.98186525 -118.21715731 225.96241619 -114.65341187 225.94052124 C-104.51987757 225.8788568 -94.38635577 225.82482934 -84.25268555 225.79150391 C-78.05700624 225.77057853 -71.86154908 225.73529266 -65.66599655 225.69074631 C-63.30331408 225.67656967 -60.9405923 225.66786014 -58.57786942 225.66469193 C-55.27408797 225.65979257 -51.97089794 225.63665921 -48.66723633 225.609375 C-47.20047707 225.6138842 -47.20047707 225.6138842 -45.7040863 225.6184845 C-40.79790687 225.55820422 -37.2622472 225.4784975 -33.32495117 222.19287109 C-30.15083057 215.84462989 -33.13941937 206.49291501 -34.32495117 199.88037109 C-34.70204897 197.73881234 -35.07714399 195.59689968 -35.44995117 193.45458984 C-35.6175293 192.51574951 -35.78510742 191.57690918 -35.95776367 190.60961914 C-36.32495117 188.19287109 -36.32495117 188.19287109 -36.32495117 185.19287109 C-35.70749023 184.98533203 -35.0900293 184.77779297 -34.45385742 184.56396484 C-18.49117132 178.75714296 -9.62351227 166.45866089 -1.51245117 152.13037109 C-0.41374004 150.2179815 0.68877579 148.30781483 1.79125977 146.39759827 C2.5597531 145.06525447 3.32699089 143.73218575 4.09301758 142.39842224 C8.57905031 134.59319433 13.19107091 126.86339274 17.80004883 119.13037109 C20.06771281 115.32238087 22.33374682 111.51346146 24.5925293 107.70019531 C25.97153841 105.37233779 27.36229032 103.05210825 28.76147461 100.73632812 C29.39811035 99.67140137 30.03474609 98.60647461 30.69067383 97.50927734 C31.5342041 96.11044312 31.5342041 96.11044312 32.39477539 94.68334961 C34.23520387 91.10321786 34.49368013 89.12230134 33.67504883 85.19287109 C32.92968132 82.61569749 32.92968132 82.61569749 30.67504883 81.19287109 C27.51353355 80.49234266 24.78146832 80.23308035 21.67504883 81.19287109 C16.53819571 86.21085488 13.36133171 92.67184152 9.86254883 98.88037109 C8.53063714 101.21713671 7.19750365 103.55315966 5.86254883 105.88818359 C5.52043869 106.4877034 5.17832855 107.08722321 4.82585144 107.70491028 C0.41873884 115.41502534 -4.12649039 123.04303869 -8.67358398 130.67114258 C-11.59077539 135.56754832 -14.49728935 140.46563021 -17.30932617 145.42333984 C-24.61969831 158.28868151 -31.35195287 166.63747476 -46.14882469 170.76608849 C-50.67738696 171.65423154 -55.28664814 171.47815704 -59.88476562 171.4675293 C-61.03039978 171.47264023 -62.17603394 171.47775116 -63.35638428 171.48301697 C-67.13372053 171.49688698 -70.91087377 171.49595793 -74.68823242 171.49365234 C-77.32228157 171.49754101 -79.95633009 171.50187604 -82.59037781 171.50663757 C-88.10893365 171.51483783 -93.62743827 171.51395148 -99.14599609 171.50854492 C-105.50407039 171.50251112 -111.86192306 171.51480577 -118.21995956 171.53611499 C-124.35969415 171.55592799 -130.49932593 171.55889598 -136.63908958 171.55537987 C-139.24049588 171.55589196 -141.84190581 171.56110859 -144.44329262 171.57119179 C-148.08801763 171.58358436 -151.73223569 171.57674671 -155.37695312 171.56518555 C-156.44274094 171.57282928 -157.50852875 171.58047302 -158.60661316 171.58834839 C-168.25312551 171.52101566 -176.55654737 170.00301041 -183.62963867 163.13037109 C-188.79891328 157.22262869 -190.00350543 151.85610717 -189.70776367 144.02880859 C-188.96665413 138.53854813 -186.4982765 135.05568262 -182.38745117 131.38037109 C-176.69433314 127.31385821 -172.25938296 126.90361584 -165.46728516 126.9375 C-164.58540527 126.93387955 -163.70352539 126.93025909 -162.79492188 126.92652893 C-160.88520274 126.91964925 -158.97546401 126.91712681 -157.06573296 126.9184761 C-154.04385464 126.91944229 -151.02233106 126.90648947 -148.00050354 126.88949585 C-139.41084505 126.84324153 -130.8212241 126.81860366 -122.23144531 126.81201172 C-116.97357402 126.80700399 -111.71607536 126.78279601 -106.45833015 126.74668503 C-104.45486752 126.73687389 -102.45135373 126.73456222 -100.44787407 126.73985672 C-97.6492498 126.74690802 -94.8517414 126.72968672 -92.05322266 126.70703125 C-91.22454178 126.7152037 -90.3958609 126.72337616 -89.54206848 126.73179626 C-85.98822389 126.6805211 -83.79352916 126.53606092 -80.88473511 124.40563965 C-79.431973 122.34469632 -78.46230689 120.64630998 -77.64013672 118.27441406 C-77.23187653 117.12452248 -77.23187653 117.12452248 -76.81536865 115.95140076 C-76.53364807 115.12100784 -76.25192749 114.29061493 -75.96166992 113.43505859 C-75.49836273 112.11532799 -75.49836273 112.11532799 -75.0256958 110.76893616 C-74.35929448 108.86619049 -73.69815642 106.96159501 -73.04171753 105.0553894 C-72.00264628 102.03941171 -70.94912911 99.0288389 -69.89160156 96.01928711 C-67.33430936 88.73317207 -64.80002525 81.43910839 -62.26611328 74.14483643 C-60.25949661 68.37151831 -58.24268786 62.60196809 -56.21157837 56.83721924 C-55.28521176 54.19528279 -54.37355423 51.54858163 -53.46240234 48.90136719 C-47.22245331 31.02574208 -38.96141637 15.36985171 -21.47338867 6.22460938 C-14.4650755 2.89169501 -7.82507001 0.10766685 0 0 Z " fill="#FEFEFE" transform="translate(727.324951171875,570.80712890625)"/>
<path d="M0 0 C0.74224099 -0.00367669 1.48448198 -0.00735338 2.24921513 -0.01114148 C4.73776502 -0.02215923 7.22627313 -0.02601897 9.71484375 -0.02983093 C11.49889762 -0.0360972 13.2829502 -0.04274414 15.06700134 -0.04974365 C20.92877292 -0.07077312 26.79054472 -0.08114737 32.65234375 -0.09111023 C34.67286187 -0.09515868 36.69337986 -0.09927563 38.71389771 -0.10346031 C48.21049148 -0.12251225 57.7070775 -0.13674134 67.20368671 -0.14507228 C78.15035612 -0.15483467 89.09682278 -0.18112812 100.04342079 -0.22157317 C108.51325968 -0.25178818 116.98304064 -0.2665464 125.45293236 -0.26985329 C130.50704319 -0.2721983 135.56093743 -0.28108663 140.61499023 -0.30631447 C145.37568547 -0.32969347 150.13602305 -0.33378909 154.89676094 -0.32355309 C156.63652299 -0.32305994 158.37630323 -0.3293145 160.11601067 -0.34310913 C175.40396053 -0.4574698 187.65127023 1.98340666 199.33984375 12.58467102 C200.10296875 13.43029602 200.86609375 14.27592102 201.65234375 15.14717102 C202.13316406 15.63572571 202.61398437 16.1242804 203.109375 16.62763977 C212.15418123 26.26780034 214.95547103 38.56081719 214.94287109 51.39595032 C214.94958832 52.39060806 214.95630554 53.38526581 214.96322632 54.4100647 C214.98213837 57.680558 214.98612735 60.95084527 214.98828125 64.22138977 C214.99471474 66.51051923 215.00144351 68.79964787 215.00845337 71.08877563 C215.0204098 75.88259282 215.02413595 80.67633803 215.02294922 85.47016907 C215.02274633 91.58504218 215.05002567 97.69944902 215.08449364 103.81421185 C215.106835 108.54227783 215.11078451 113.27023298 215.10972977 117.99834633 C215.11207571 120.25118933 215.12084184 122.50403586 215.1363945 124.7568264 C215.25439984 143.61799805 213.55491229 159.92863501 199.65234375 174.14717102 C189.38673425 182.50289968 179.31576692 186.32862057 166.13354492 186.2414093 C164.38038652 186.23862384 162.62722794 186.23595382 160.87406921 186.23338318 C159.48653726 186.22880789 159.48653726 186.22880789 158.07097435 186.22414017 C153.15469992 186.21275986 148.23851604 186.23330443 143.32226562 186.24873352 C137.07429085 186.26701784 130.82681065 186.27570328 124.57885742 186.2467804 C119.52175074 186.22420905 114.46571556 186.23571152 109.40868568 186.26978683 C107.48665999 186.27654283 105.56454781 186.27091254 103.64259911 186.25242996 C91.84108909 185.67040352 91.84108909 185.67040352 81.59790039 190.53242493 C80.58036893 191.70736515 79.59380141 192.9104365 78.65234375 194.14717102 C77.67603053 195.06820253 76.68179725 195.9707289 75.66796875 196.85029602 C74.7553125 197.69076477 73.84265625 198.53123352 72.90234375 199.39717102 C71.86461391 200.35163135 70.82685259 201.30605746 69.7890625 202.26045227 C69.26876465 202.73950012 68.7484668 203.21854797 68.21240234 203.71211243 C66.70074029 205.10265226 65.18684708 206.49070759 63.671875 207.87763977 C62.94037231 208.54738831 62.94037231 208.54738831 62.1940918 209.23066711 C61.20485819 210.13614485 60.21543642 211.04141706 59.22583008 211.94648743 C56.60310287 214.34813368 53.99147412 216.76061716 51.39453125 219.19013977 C48.17133199 222.20280939 44.92000359 225.18284253 41.65234375 228.14717102 C41.14751465 228.61026672 40.64268555 229.07336243 40.12255859 229.55049133 C38.69128841 230.85181663 37.23474778 232.12518228 35.77734375 233.39717102 C34.95492187 234.12420227 34.1325 234.85123352 33.28515625 235.60029602 C29.85988161 237.61277192 27.56301189 237.55642699 23.65234375 237.14717102 C20.89905354 235.35154697 19.12606914 234.0946218 17.65234375 231.14717102 C17.56284958 229.69679995 17.53475935 228.24238473 17.53881836 226.78926086 C17.53889389 225.88847809 17.53896942 224.98769531 17.53904724 224.05961609 C17.54420853 223.08561859 17.54936981 222.11162109 17.5546875 221.10810852 C17.55610245 220.11211639 17.5575174 219.11612427 17.55897522 218.08995056 C17.56458439 214.90066049 17.57713845 211.71143996 17.58984375 208.52217102 C17.59485757 206.36331787 17.59942068 204.20446361 17.60351562 202.04560852 C17.6145568 196.74610552 17.63130387 191.44664324 17.65234375 186.14717102 C16.96309814 186.1733551 16.27385254 186.19953918 15.5637207 186.22651672 C-3.60384229 186.8588718 -17.59440633 185.88422573 -32.30859375 172.34248352 C-42.07487696 162.06443002 -45.65147387 149.52738315 -45.63818359 135.71479797 C-45.64490082 134.70063309 -45.65161804 133.6864682 -45.65853882 132.64157104 C-45.67745462 129.30614754 -45.68144003 125.97092601 -45.68359375 122.63545227 C-45.69002695 120.30148233 -45.6967557 117.9675132 -45.70376587 115.63354492 C-45.71572322 110.74557121 -45.71944836 105.85766809 -45.71826172 100.96968079 C-45.71805882 94.7337431 -45.74533894 88.49826259 -45.77980614 82.26243305 C-45.80214396 77.44172118 -45.80609712 72.62111804 -45.80504227 67.80035973 C-45.80738871 65.50285965 -45.81615772 63.20535614 -45.831707 60.90790749 C-45.94225574 42.88442908 -44.91474134 28.08250418 -32.38671875 13.93232727 C-23.59619345 5.41956949 -12.2327853 -0.00325808 0 0 Z " fill="#FEFEFE" transform="translate(516.34765625,181.8528289794922)"/>
<path d="M0 0 C65.01 0 130.02 0 197 0 C216.9599571 99.79978548 216.9599571 99.79978548 218 110 C216.69442139 110.0093457 215.38884277 110.01869141 214.04370117 110.02832031 C209.15485729 110.0684849 204.26662532 110.13431539 199.37817383 110.20751953 C197.2708325 110.23557657 195.16338893 110.25686626 193.0559082 110.27099609 C171.83403685 110.3733466 171.83403685 110.3733466 154 121 C147.43243646 127.80100774 142.88589911 137.50630841 142.4375 147 C142.89501812 155.22186976 145.756007 163.0320688 150 170 C150 170.66 150 171.32 150 172 C18 172 -114 172 -250 172 C-250 165.4 -250 158.8 -250 152 C-124.27 152 1.46 152 131 152 C130.67 151.34 130.34 150.68 130 150 C129.87759865 148.23229673 129.82448847 146.45939538 129.8125 144.6875 C129.79832031 143.74261719 129.78414063 142.79773438 129.76953125 141.82421875 C130 139 130 139 132 134 C97.02 134 62.04 134 26 134 C24.52827275 129.58481824 23.46630164 125.71090851 22.6328125 121.1875 C22.51195282 120.53789307 22.39109314 119.88828613 22.26657104 119.21899414 C21.88204961 117.14671181 21.50343934 115.07340065 21.125 113 C20.87929022 111.67180391 20.63319867 110.34367839 20.38671875 109.015625 C19.29560192 103.12065747 18.21554574 97.22391948 17.16796875 91.32104492 C15.08959227 79.66314606 12.84946357 68.04106387 10.546875 56.42578125 C10.39356091 55.65222164 10.24024681 54.87866203 10.08228683 54.08166122 C8.64587254 46.83778778 7.20481822 39.59483924 5.76171875 32.35229492 C4.96368776 28.34630405 4.16840612 24.33977521 3.37479401 20.33290672 C3.07445897 18.81960693 2.77303332 17.30652316 2.47048187 15.79366493 C2.05164488 13.6992887 1.63627625 11.60425232 1.22167969 9.5090332 C0.86671417 7.72659966 0.86671417 7.72659966 0.50457764 5.90815735 C0 3 0 3 0 0 Z " fill="#FDFDFD" transform="translate(377,570)"/>
<path d="M0 0 C0.74224099 -0.00367669 1.48448198 -0.00735338 2.24921513 -0.01114148 C4.73776502 -0.02215923 7.22627313 -0.02601897 9.71484375 -0.02983093 C11.49889762 -0.0360972 13.2829502 -0.04274414 15.06700134 -0.04974365 C20.92877292 -0.07077312 26.79054472 -0.08114737 32.65234375 -0.09111023 C34.67286187 -0.09515868 36.69337986 -0.09927563 38.71389771 -0.10346031 C48.21049148 -0.12251225 57.7070775 -0.13674134 67.20368671 -0.14507228 C78.15035612 -0.15483467 89.09682278 -0.18112812 100.04342079 -0.22157317 C108.51325968 -0.25178818 116.98304064 -0.2665464 125.45293236 -0.26985329 C130.50704319 -0.2721983 135.56093743 -0.28108663 140.61499023 -0.30631447 C145.37568547 -0.32969347 150.13602305 -0.33378909 154.89676094 -0.32355309 C156.63652299 -0.32305994 158.37630323 -0.3293145 160.11601067 -0.34310913 C175.40396053 -0.4574698 187.65127023 1.98340666 199.33984375 12.58467102 C200.10296875 13.43029602 200.86609375 14.27592102 201.65234375 15.14717102 C202.13316406 15.63572571 202.61398437 16.1242804 203.109375 16.62763977 C212.15418123 26.26780034 214.95547103 38.56081719 214.94287109 51.39595032 C214.94958832 52.39060806 214.95630554 53.38526581 214.96322632 54.4100647 C214.98213837 57.680558 214.98612735 60.95084527 214.98828125 64.22138977 C214.99471474 66.51051923 215.00144351 68.79964787 215.00845337 71.08877563 C215.0204098 75.88259282 215.02413595 80.67633803 215.02294922 85.47016907 C215.02274633 91.58504218 215.05002567 97.69944902 215.08449364 103.81421185 C215.106835 108.54227783 215.11078451 113.27023298 215.10972977 117.99834633 C215.11207571 120.25118933 215.12084184 122.50403586 215.1363945 124.7568264 C215.25439984 143.61799805 213.55491229 159.92863501 199.65234375 174.14717102 C189.38673425 182.50289968 179.31576692 186.32862057 166.13354492 186.2414093 C164.38038652 186.23862384 162.62722794 186.23595382 160.87406921 186.23338318 C159.48653726 186.22880789 159.48653726 186.22880789 158.07097435 186.22414017 C153.15469992 186.21275986 148.23851604 186.23330443 143.32226562 186.24873352 C137.07429085 186.26701784 130.82681065 186.27570328 124.57885742 186.2467804 C119.52175074 186.22420905 114.46571556 186.23571152 109.40868568 186.26978683 C107.48665999 186.27654283 105.56454781 186.27091254 103.64259911 186.25242996 C91.84108909 185.67040352 91.84108909 185.67040352 81.59790039 190.53242493 C80.58036893 191.70736515 79.59380141 192.9104365 78.65234375 194.14717102 C77.67603053 195.06820253 76.68179725 195.9707289 75.66796875 196.85029602 C74.7553125 197.69076477 73.84265625 198.53123352 72.90234375 199.39717102 C71.86461391 200.35163135 70.82685259 201.30605746 69.7890625 202.26045227 C69.26876465 202.73950012 68.7484668 203.21854797 68.21240234 203.71211243 C66.70074029 205.10265226 65.18684708 206.49070759 63.671875 207.87763977 C62.94037231 208.54738831 62.94037231 208.54738831 62.1940918 209.23066711 C61.20485819 210.13614485 60.21543642 211.04141706 59.22583008 211.94648743 C56.60310287 214.34813368 53.99147412 216.76061716 51.39453125 219.19013977 C48.17133199 222.20280939 44.92000359 225.18284253 41.65234375 228.14717102 C41.14751465 228.61026672 40.64268555 229.07336243 40.12255859 229.55049133 C38.69128841 230.85181663 37.23474778 232.12518228 35.77734375 233.39717102 C34.95492187 234.12420227 34.1325 234.85123352 33.28515625 235.60029602 C29.85988161 237.61277192 27.56301189 237.55642699 23.65234375 237.14717102 C20.89905354 235.35154697 19.12606914 234.0946218 17.65234375 231.14717102 C17.56284958 229.69679995 17.53475935 228.24238473 17.53881836 226.78926086 C17.53889389 225.88847809 17.53896942 224.98769531 17.53904724 224.05961609 C17.54420853 223.08561859 17.54936981 222.11162109 17.5546875 221.10810852 C17.55610245 220.11211639 17.5575174 219.11612427 17.55897522 218.08995056 C17.56458439 214.90066049 17.57713845 211.71143996 17.58984375 208.52217102 C17.59485757 206.36331787 17.59942068 204.20446361 17.60351562 202.04560852 C17.6145568 196.74610552 17.63130387 191.44664324 17.65234375 186.14717102 C16.96309814 186.1733551 16.27385254 186.19953918 15.5637207 186.22651672 C-3.60384229 186.8588718 -17.59440633 185.88422573 -32.30859375 172.34248352 C-42.07487696 162.06443002 -45.65147387 149.52738315 -45.63818359 135.71479797 C-45.64490082 134.70063309 -45.65161804 133.6864682 -45.65853882 132.64157104 C-45.67745462 129.30614754 -45.68144003 125.97092601 -45.68359375 122.63545227 C-45.69002695 120.30148233 -45.6967557 117.9675132 -45.70376587 115.63354492 C-45.71572322 110.74557121 -45.71944836 105.85766809 -45.71826172 100.96968079 C-45.71805882 94.7337431 -45.74533894 88.49826259 -45.77980614 82.26243305 C-45.80214396 77.44172118 -45.80609712 72.62111804 -45.80504227 67.80035973 C-45.80738871 65.50285965 -45.81615772 63.20535614 -45.831707 60.90790749 C-45.94225574 42.88442908 -44.91474134 28.08250418 -32.38671875 13.93232727 C-23.59619345 5.41956949 -12.2327853 -0.00325808 0 0 Z M-20.34765625 29.14717102 C-23.93262783 33.98643786 -26.46025004 38.28931246 -26.49482727 44.42684937 C-26.50198257 45.30000793 -26.50913788 46.1731665 -26.51651001 47.07278442 C-26.51919891 48.02811569 -26.52188782 48.98344696 -26.5246582 49.96772766 C-26.5312294 50.97622772 -26.5378006 51.98472778 -26.54457092 53.02378845 C-26.56431333 56.36830214 -26.57597066 59.71277083 -26.5859375 63.05732727 C-26.59001303 64.20051359 -26.59408855 65.34369991 -26.59828758 66.52152824 C-26.61915554 72.57602127 -26.63345233 78.6304916 -26.64282227 84.68501282 C-26.65386872 90.92696799 -26.68824657 97.16856491 -26.72799397 103.41039371 C-26.7541957 108.21897017 -26.76251745 113.02746188 -26.76610374 117.83610344 C-26.770963 120.13609159 -26.78255799 122.43607613 -26.80114174 124.73599434 C-26.82560079 127.96456489 -26.82455508 131.192217 -26.81762695 134.42085266 C-26.83043701 135.36201431 -26.84324707 136.30317596 -26.85644531 137.27285767 C-26.79634643 145.00090266 -24.69811702 151.31679051 -20.66015625 157.89717102 C-13.35790433 165.00206478 -5.94672952 168.38857532 4.28125 168.38545227 C5.74284794 168.40086166 7.20443668 168.41716453 8.66601562 168.4342804 C10.94609037 168.45075812 13.22548551 168.45963813 15.50561523 168.45259094 C17.72325962 168.44996708 19.93887719 168.47809436 22.15625 168.51045227 C23.47439697 168.51343323 24.79254395 168.51641418 26.15063477 168.51948547 C30.61851277 169.32035798 32.05325222 170.44632392 34.65234375 174.14717102 C35.15956527 176.98449421 35.37488886 179.24090883 35.359375 182.07295227 C35.37449631 182.82054306 35.38961761 183.56813385 35.40519714 184.33837891 C35.44798456 186.71245189 35.45690255 189.08525133 35.46484375 191.45967102 C35.48799533 193.07493904 35.51336206 194.69017693 35.54101562 196.30537415 C35.60377832 200.25275188 35.63618359 204.19933856 35.65234375 208.14717102 C40.23385831 204.27195543 44.70300508 200.30334308 49.08984375 196.20967102 C53.16278658 192.4279829 57.26847318 188.70434413 61.4765625 185.07295227 C65.10481149 181.86159365 68.63848796 178.54622731 72.17382812 175.23310852 C77.73960488 170.04909984 80.88533167 168.85518337 88.37133789 168.89179993 C89.70852371 168.88636925 89.70852371 168.88636925 91.07272339 168.88082886 C93.01083922 168.87393061 94.94897449 168.87143022 96.88710213 168.87277603 C99.96087381 168.87374086 103.03429534 168.86080173 106.10801697 168.84379578 C114.84826899 168.79752626 123.5884872 168.77294049 132.32885742 168.76631165 C137.67522004 168.76127905 143.02122054 168.73693407 148.36746025 168.70098495 C150.39945737 168.69122128 152.43150454 168.68883616 154.46351814 168.69415665 C170.72452117 168.9271336 170.72452117 168.9271336 185.23828125 162.28779602 C190.97176492 156.22883074 195.7498858 149.58139374 195.79951477 140.94342041 C195.80667007 140.08709015 195.81382538 139.23075989 195.82119751 138.34848022 C195.82388641 137.41185043 195.82657532 136.47522064 195.8293457 135.51020813 C195.8392025 134.02671875 195.8392025 134.02671875 195.84925842 132.51325989 C195.86899955 129.23367742 195.88065795 125.95414083 195.890625 122.67451477 C195.89470053 121.55339357 195.89877605 120.43227238 195.90297508 119.27717781 C195.92384262 113.33939421 195.93813951 107.40163375 195.94750977 101.46382141 C195.95855538 95.34293133 195.99293234 89.22240667 196.03268147 83.10164547 C196.05888654 78.38571518 196.06720525 73.66987128 196.07079124 68.95387459 C196.07564973 66.69854334 196.08724255 64.44321575 196.10582924 62.18795586 C196.13029522 59.02164588 196.12924136 55.85627208 196.12231445 52.68989563 C196.13512451 51.76743546 196.14793457 50.84497528 196.16113281 49.89456177 C196.08694114 40.53414427 193.09234637 32.75077058 186.6484375 25.90498352 C179.59550698 19.69398795 172.73339459 18.03112746 163.50592041 18 C162.79746027 17.99632331 162.08900012 17.99264662 161.35907149 17.98885852 C158.99100116 17.97786727 156.62297478 17.97398564 154.25488281 17.97016907 C152.55448265 17.96390104 150.85408384 17.95725393 149.15368652 17.95025635 C143.57512356 17.92925625 137.99656045 17.91885864 132.41796875 17.90888977 C130.4948907 17.90484088 128.5718128 17.90072392 126.64873505 17.89653969 C117.61400563 17.87749795 108.57928435 17.86326405 99.54453874 17.85492772 C89.12590966 17.84515482 78.707493 17.81882962 68.28893876 17.77842683 C60.22846494 17.74824417 52.16805195 17.73345685 44.10752273 17.73014671 C39.29664533 17.72779896 34.48599515 17.71887407 29.67517853 17.69368553 C25.14757421 17.67036173 20.62034603 17.66618885 16.09269714 17.67644691 C14.4355265 17.67694132 12.77833705 17.6706492 11.12122345 17.65689087 C-1.83000965 17.55541952 -11.2153072 19.27866312 -20.34765625 29.14717102 Z " fill="#101010" transform="translate(516.34765625,181.8528289794922)"/>
<path d="M0 0 C4.1796603 3.50465056 8.11713137 7.17039431 12 11 C12.80566406 11.79277344 13.61132812 12.58554687 14.44140625 13.40234375 C31.74575733 31.48915244 39.54456811 55.21927184 39.421875 79.89208984 C38.8146382 105.41601053 28.69502225 127.7610078 11 146 C10.40058594 146.67289063 9.80117188 147.34578125 9.18359375 148.0390625 C-6.79117848 165.35944189 -31.14832767 174.19984463 -54.3046875 175.23828125 C-81.44257522 175.89512938 -105.85723755 166.38720058 -126 148 C-142.81878666 131.65302749 -154.52878177 107.9215714 -155.30078125 84.30078125 C-155.32026411 82.30477876 -155.32373279 80.30856597 -155.3125 78.3125 C-155.30686035 77.25812744 -155.3012207 76.20375488 -155.29541016 75.11743164 C-154.87645868 48.03698888 -142.77794737 25.35708499 -123.84277344 6.40380859 C-91.26556863 -24.84887299 -35.76816868 -27.06352586 0 0 Z M-88 5 C-88.91676514 5.39348633 -88.91676514 5.39348633 -89.85205078 5.79492188 C-98.14017425 9.40353319 -105.28371533 13.93601636 -112 20 C-112.63421875 20.56460938 -113.2684375 21.12921875 -113.921875 21.7109375 C-126.92196169 33.96323159 -136.55541199 53.13964227 -137.203125 71.1171875 C-137.59248098 94.64222477 -131.73447481 115.22862537 -115.2890625 132.6640625 C-114.53367187 133.43492187 -113.77828125 134.20578125 -113 135 C-112.34773438 135.68835938 -111.69546875 136.37671875 -111.0234375 137.0859375 C-99.33068564 148.5078148 -81.31994682 156.29043709 -65 157 C-63.9996875 157.0515625 -62.999375 157.103125 -61.96875 157.15625 C-48.2257204 157.52768323 -35.35771701 155.1788585 -23 149 C-22.01515625 148.50757813 -21.0303125 148.01515625 -20.015625 147.5078125 C-1.24615808 137.34507005 12.071945 120.19843328 18.3203125 99.8984375 C24.45473822 77.92315138 20.67951707 56.90305776 9.875 37 C-0.65833914 19.63361111 -17.3591804 7.90932466 -36.5625 1.625 C-53.28402929 -2.46056953 -72.19116178 -1.97915266 -88 5 Z " fill="#10100F" transform="translate(402,261)"/>
<path d="M0 0 C2.18845565 1.67091546 4.28489476 3.41160622 6.375 5.203125 C7.25865234 5.87214844 7.25865234 5.87214844 8.16015625 6.5546875 C21.60040039 17.02521938 31.17642598 35.45208482 33.375 52.203125 C35.36918116 75.87148084 30.39423284 96.707919 15.0625 115.203125 C2.32813708 129.77546018 -15.93977836 139.83021425 -35.33691406 141.42626953 C-57.65552457 142.62931731 -78.09823131 137.53849285 -95.171875 122.53515625 C-108.62909772 109.74222319 -119.51555817 92.65346939 -120.80200195 73.57861328 C-121.38600315 46.84485325 -116.18019947 27.2648182 -97.375 7.578125 C-71.70397802 -17.94801179 -29.49895144 -20.19273461 0 0 Z M-88.04296875 23.2421875 C-100.49925057 38.68182571 -103.65045741 53.94338463 -102.625 73.203125 C-100.7198826 88.96840843 -91.28760004 101.96050446 -79.375 111.953125 C-65.4835687 122.24397516 -50.39363646 124.56698319 -33.625 123.203125 C-29.01265927 122.36968355 -24.91976184 121.06457748 -20.625 119.203125 C-19.696875 118.80222656 -18.76875 118.40132812 -17.8125 117.98828125 C-3.02425475 110.74120083 7.04305365 98.47881212 12.8125 83.203125 C18.1942174 67.3717052 16.11719559 50.42041952 8.8125 35.578125 C-0.00534476 20.55677136 -13.80369988 10.52567968 -30.48339844 5.66113281 C-51.38782424 1.19046446 -73.4552088 7.55413422 -88.04296875 23.2421875 Z " fill="#10100F" transform="translate(773.625,408.796875)"/>
<path d="M0 0 C2.74483673 1.24765306 4.47294058 2.35315435 6.375 4.6875 C8.49222569 12.52123504 4.09181497 21.72210525 1.73828125 29.11328125 C1.30508352 30.491039 0.87249355 31.86898798 0.44047546 33.24711609 C-0.69700834 36.86994531 -1.84269639 40.49012781 -2.99017334 44.10980225 C-4.13578748 47.7285391 -5.27369658 51.34969568 -6.41210938 54.97070312 C-7.73239062 59.16992489 -9.05471556 63.36844171 -10.38815308 67.56350708 C-12.24919832 73.42110984 -14.09794493 79.2795528 -15.84228516 85.17333984 C-16.11031448 86.0661113 -16.37834381 86.95888275 -16.65449524 87.87870789 C-17.12819963 89.46410708 -17.59115319 91.05278314 -18.04020691 92.64533997 C-18.93671291 95.6200185 -19.71679977 97.712399 -21.91674805 99.9465332 C-25.23879444 101.6264383 -28.42428902 101.73638404 -32 101 C-35 99 -35 99 -37 96 C-37.92981409 88.11093463 -35.16648339 81.03786101 -32.80078125 73.59765625 C-32.3633301 72.19281836 -31.92692301 70.78765498 -31.49150085 69.38218689 C-30.34426767 65.6883367 -29.1838127 61.99877755 -28.02020264 58.31005859 C-26.62714277 53.88590711 -25.24928969 49.45700351 -23.86947441 45.0287075 C-22.76422327 41.48252392 -21.65645993 37.93718332 -20.54177856 34.39395142 C-18.75930925 28.71966317 -16.98588865 23.04748549 -15.38037109 17.31982422 C-15.04515694 16.12660805 -15.04515694 16.12660805 -14.70317078 14.9092865 C-14.16394317 12.95772334 -13.64183376 11.0014499 -13.12182617 9.04467773 C-10.56200338 2.09722397 -7.31120337 -0.57342772 0 0 Z " fill="#101010" transform="translate(618,227)"/>
<path d="M0 0 C2.75329021 1.79562405 4.52627461 3.05254922 6 6 C6.5 8.625 6.5 8.625 6 12 C1.50760168 18.25730004 -4.47665722 23.59998923 -9.9375 29 C-10.71673828 29.77472656 -11.49597656 30.54945313 -12.29882812 31.34765625 C-14.1969242 33.23410757 -16.09733149 35.11816245 -18 37 C-16.44346929 40.74886556 -14.12681671 43.08955008 -11.24609375 45.9140625 C-10.30958984 46.83960938 -9.37308594 47.76515625 -8.40820312 48.71875 C-7.41831227 49.68785102 -6.42807386 50.65659713 -5.4375 51.625 C-3.49549092 53.53065371 -1.55765812 55.44035631 0.37890625 57.3515625 C1.2407251 58.19541504 2.10254395 59.03926758 2.99047852 59.90869141 C5.39021698 62.40609873 5.93009732 63.37087592 6.3125 66.8125 C5.91328884 70.88445382 5.07632474 72.30821585 2 75 C-0.73932944 76.00247801 -3.11205743 76.45734322 -6 76 C-10.90660236 73.06976025 -14.83662062 69.51216646 -18.89453125 65.51171875 C-19.52735519 64.89029495 -20.16017914 64.26887115 -20.81217957 63.62861633 C-22.14016976 62.31942315 -23.46534923 61.00737337 -24.7878418 59.69262695 C-26.81013463 57.68984255 -28.8527597 55.70939423 -30.89648438 53.72851562 C-32.18881241 52.44924111 -33.47987268 51.16868435 -34.76953125 49.88671875 C-35.37988724 49.30105637 -35.99024323 48.71539398 -36.61909485 48.11198425 C-39.50539726 45.19480981 -40.88231104 43.39538261 -42.0769043 39.38208008 C-41.91927444 32.44986934 -36.86876217 28.58558553 -32.21484375 23.984375 C-31.55795059 23.32794006 -30.90105743 22.67150513 -30.22425842 21.99517822 C-28.84059435 20.6145254 -27.45451048 19.23629389 -26.06616211 17.86035156 C-23.93608007 15.74859229 -21.81417512 13.62887363 -19.69335938 11.5078125 C-18.34682633 10.16619261 -16.99983689 8.82503059 -15.65234375 7.484375 C-15.01586411 6.84900818 -14.37938446 6.21364136 -13.72361755 5.559021 C-13.13282913 4.97461243 -12.54204071 4.39020386 -11.93334961 3.78808594 C-11.41389267 3.2724408 -10.89443573 2.75679565 -10.35923767 2.2255249 C-7.1662657 -0.6533437 -4.14638341 -0.35138842 0 0 Z " fill="#0F0F0E" transform="translate(567,239)"/>
<path d="M0 0 C9.13699607 1.85837208 16.88836851 12.79721924 23.34448242 19.27661133 C25.14192236 21.07947341 26.94472661 22.87684985 28.74804688 24.67382812 C29.89355047 25.81999147 31.03874439 26.96646442 32.18359375 28.11328125 C32.72205429 28.64971756 33.26051483 29.18615387 33.81529236 29.73884583 C36.82593751 32.76867663 38.4349475 34.53774799 39.3125 38.75 C39.24233023 42.68758416 37.48243337 44.46624941 34.85546875 47.28125 C34.03820312 48.15910156 33.2209375 49.03695312 32.37890625 49.94140625 C28.23470869 54.26604783 24.06447465 58.5590449 19.82885742 62.79394531 C18.35370688 64.2713253 16.88680368 65.75660228 15.41992188 67.2421875 C14.47184207 68.19319499 13.52329204 69.14373398 12.57421875 70.09375 C11.73076904 70.94130859 10.88731934 71.78886719 10.01831055 72.66210938 C6.94439169 75.41566066 4.8337897 76.60366515 0.75 77.125 C-3.0493243 76.65977662 -4.59888434 75.38608379 -7.3125 72.75 C-8.82139469 69.73221063 -8.81276276 68.12677363 -8.3125 64.75 C-3.84519942 58.52295799 2.11390043 53.2296582 7.5625 47.875 C9.08300816 46.37991839 10.60135411 44.88263356 12.1171875 43.3828125 C12.77960449 42.73199707 13.44202148 42.08118164 14.12451172 41.41064453 C15.77294452 39.81857485 15.77294452 39.81857485 16.6875 37.75 C16.1198291 37.50757568 15.5521582 37.26515137 14.96728516 37.01538086 C12.24943632 35.50685542 10.40300252 33.70778646 8.2109375 31.50390625 C7.375625 30.66666016 6.5403125 29.82941406 5.6796875 28.96679688 C4.81601562 28.09087891 3.95234375 27.21496094 3.0625 26.3125 C2.19109375 25.44044922 1.3196875 24.56839844 0.421875 23.66992188 C-8.16922887 15.01897285 -8.16922887 15.01897285 -8.75 9.875 C-8.65017825 6.49353832 -8.28222685 5.70596632 -6.25 2.75 C-3.3125 0.75 -3.3125 0.75 0 0 Z " fill="#101010" transform="translate(639.3125,238.25)"/>
<path d="M0 0 C1 3 1 3 1 16 C-124.73 16 -250.46 16 -380 16 C-380 22.6 -380 29.2 -380 36 C-247.67 36 -115.34 36 21 36 C21 36.33 21 36.66 21 37 C-111.66 37 -244.32 37 -381 37 C-382.7680198 33.4639604 -382.18464913 29.39428745 -382.1875 25.5 C-382.20586914 24.17935547 -382.20586914 24.17935547 -382.22460938 22.83203125 C-382.22654297 21.99027344 -382.22847656 21.14851562 -382.23046875 20.28125 C-382.23457764 19.50845703 -382.23868652 18.73566406 -382.24291992 17.93945312 C-382 16 -382 16 -380 14 C-377.32144392 13.75160301 -377.32144392 13.75160301 -373.83492088 13.75390434 C-372.87161891 13.75044281 -372.87161891 13.75044281 -371.88885629 13.74691135 C-369.71619745 13.74157706 -367.54382935 13.75062351 -365.3711853 13.75949097 C-363.80615914 13.7586196 -362.24113327 13.75686989 -360.67610896 13.75431263 C-356.35939418 13.74982157 -352.04277787 13.7578668 -347.72607565 13.76786876 C-343.0771239 13.77647575 -338.42817806 13.77358505 -333.77922058 13.77206421 C-325.71922863 13.77101361 -317.65926896 13.77730845 -309.59928513 13.78853989 C-297.9457902 13.80476828 -286.29231094 13.81000016 -274.63880594 13.81251587 C-255.73347896 13.81689716 -236.82816919 13.83021802 -217.92285156 13.84912109 C-199.55403734 13.86746867 -181.18522778 13.88163066 -162.81640625 13.89013672 C-161.11908743 13.89092489 -161.11908743 13.89092489 -159.38747935 13.89172898 C-153.71105764 13.89433899 -148.0346359 13.89686642 -142.35821414 13.89935279 C-95.23879749 13.9200988 -48.11939963 13.95533612 -1 14 C-1.01160156 13.15695312 -1.02320313 12.31390625 -1.03515625 11.4453125 C-1.04869141 9.80175781 -1.04869141 9.80175781 -1.0625 8.125 C-1.07410156 7.03445313 -1.08570313 5.94390625 -1.09765625 4.8203125 C-1 2 -1 2 0 0 Z " fill="#010101" transform="translate(507,706)"/>
<path d="M0 0 C3.97745062 2.62381941 6.39898512 6.15093406 8.25 10.5 C9.18933243 16.34473514 7.48357276 20.70179526 4.25 25.5 C-0.38368127 29.90764804 -4.25167269 30.85580486 -10.46875 30.78515625 C-15.63272296 30.13965963 -19.45059802 26.28820227 -22.75 22.5 C-24.37224917 17.63325248 -24.64988787 12.37313597 -23.1015625 7.4296875 C-18.61645344 -1.42552783 -8.82885436 -4.29926821 0 0 Z " fill="#0F0F0F" transform="translate(490.75,615.5)"/>
<path d="M0 0 C0.33 0 0.66 0 1 0 C1.02514056 4.56746033 1.04306304 9.13487844 1.05493164 13.70239258 C1.05989112 15.24894921 1.06666077 16.79550134 1.07543945 18.34204102 C1.13218091 28.61224496 0.83654012 38.76063572 0 49 C-2 47 -2 47 -2.22705078 43.46826172 C-2.22673363 41.95536669 -2.21540633 40.44244912 -2.1953125 38.9296875 C-2.1924826 38.13345978 -2.18965271 37.33723206 -2.18673706 36.51687622 C-2.1755264 33.96943237 -2.15042062 31.42233789 -2.125 28.875 C-2.11497133 27.14974465 -2.10584528 25.42448381 -2.09765625 23.69921875 C-2.07558422 19.46601086 -2.04104867 15.2330647 -2 11 C-1.67 11 -1.34 11 -1 11 C-0.67 7.37 -0.34 3.74 0 0 Z " fill="#1B1B1B" transform="translate(159,630)"/>
<path d="M0 0 C2.10724081 3.64343545 1.88701361 5.85648728 1.29296875 10.0078125 C0.64400593 16.63588614 0.93125391 23.34690599 1 30 C0.01 30 -0.98 30 -2 30 C-2.23950618 19.7544577 -1.77203196 10.12589689 0 0 Z " fill="#161616" transform="translate(161,545)"/>
<path d="M0 0 C7.59 0 15.18 0 23 0 C20 3 20 3 17.9152832 3.34057617 C17.13499756 3.32486572 16.35471191 3.30915527 15.55078125 3.29296875 C14.70322266 3.28330078 13.85566406 3.27363281 12.98242188 3.26367188 C12.10134766 3.23853516 11.22027344 3.21339844 10.3125 3.1875 C9.41982422 3.17396484 8.52714844 3.16042969 7.60742188 3.14648438 C5.40433834 3.11114079 3.20247418 3.06180493 1 3 C0.67 2.01 0.34 1.02 0 0 Z " fill="#161716" transform="translate(332,433)"/>
<path d="M0 0 C2 2 2 2 2 5 C-3.94 5 -9.88 5 -16 5 C-16.33 3.68 -16.66 2.36 -17 1 C-16.01 1.495 -16.01 1.495 -15 2 C-12.45384991 2.23172827 -9.92603775 2.41894529 -7.375 2.5625 C-6.66859375 2.60568359 -5.9621875 2.64886719 -5.234375 2.69335938 C-3.48981463 2.79944751 -1.74493303 2.90022889 0 3 C0 2.01 0 1.02 0 0 Z " fill="#050605" transform="translate(523,535)"/>
<path d="M0 0 C0 0.66 0 1.32 0 2 C-3.96 2 -7.92 2 -12 2 C-12 2.66 -12 3.32 -12 4 C-13.65 3.67 -15.3 3.34 -17 3 C-11.97945901 -0.34702732 -5.88559684 -1.89857963 0 0 Z M-17 4 C-15 5 -15 5 -15 5 Z " fill="#181818" transform="translate(721,397)"/>
<path d="M0 0 C0.99 0 1.98 0 3 0 C3.31563182 5.26053037 2.66590937 8.44573816 0 13 C-0.33 12.34 -0.66 11.68 -1 11 C-0.67 10.01 -0.34 9.02 0 8 C0.06665376 6.60560336 0.08538199 5.20830125 0.0625 3.8125 C0.041875 2.554375 0.02125 1.29625 0 0 Z " fill="#1A1A1A" transform="translate(496,626)"/>
<path d="M0 0 C0.33 0 0.66 0 1 0 C1.33 5.28 1.66 10.56 2 16 C1.01 16 0.02 16 -1 16 C-1.02725341 14.2709226 -1.04650987 12.54171824 -1.0625 10.8125 C-1.07410156 9.84957031 -1.08570313 8.88664063 -1.09765625 7.89453125 C-1.00486622 5.14423487 -0.62111685 2.67520409 0 0 Z " fill="#1E1F1F" transform="translate(860,705)"/>
<path d="M0 0 C2.18994248 3.28491373 2.35277339 4.83095639 2.625 8.6875 C2.69976562 9.68136719 2.77453125 10.67523438 2.8515625 11.69921875 C2.92503906 12.83810547 2.92503906 12.83810547 3 14 C1 13 1 13 -0.125 10.3125 C-0.99365147 7.02403373 -1.23595335 4.38199801 -1 1 C-0.67 0.67 -0.34 0.34 0 0 Z " fill="#1D1D1D" transform="translate(264,344)"/>
<path d="M0 0 C0.33 0 0.66 0 1 0 C1.66 4.29 2.32 8.58 3 13 C2.01 13.33 1.02 13.66 0 14 C-0.19456705 12.04235617 -0.38044247 10.08384679 -0.5625 8.125 C-0.66691406 7.03445313 -0.77132813 5.94390625 -0.87890625 4.8203125 C-1 2 -1 2 0 0 Z " fill="#1A191A" transform="translate(377,573)"/>
<path d="M0 0 C0.33 0 0.66 0 1 0 C1.66 4.29 2.32 8.58 3 13 C2.01 13 1.02 13 0 13 C-0.19466332 11.20909747 -0.38051213 9.41723495 -0.5625 7.625 C-0.66691406 6.62726562 -0.77132813 5.62953125 -0.87890625 4.6015625 C-1 2 -1 2 0 0 Z " fill="#1D1D1D" transform="translate(380,588)"/>
<path d="M0 0 C0.99 0.33 1.98 0.66 3 1 C3.33 3.97 3.66 6.94 4 10 C3.01 9.67 2.02 9.34 1 9 C0.67 6.03 0.34 3.06 0 0 Z " fill="#191919" transform="translate(674,762)"/>
<path d="M0 0 C2 3 2 3 2 5 C1.34 5 0.68 5 0 5 C0.33 5.99 0.66 6.98 1 8 C0.5625 10.1875 0.5625 10.1875 0 12 C-0.99 12 -1.98 12 -3 12 C-2.01 8.04 -1.02 4.08 0 0 Z " fill="#1A1A1A" transform="translate(587,295)"/>
<path d="M0 0 C2.875 -0.125 2.875 -0.125 6 0 C6.66 0.66 7.32 1.32 8 2 C3.545 2.495 3.545 2.495 -1 3 C-0.67 2.01 -0.34 1.02 0 0 Z " fill="#161615" transform="translate(235,574)"/>
<path d="M0 0 C0.99 0 1.98 0 3 0 C2.34 3.3 1.68 6.6 1 10 C-1.56687367 6.1496895 -0.83288724 4.41430237 0 0 Z " fill="#191918" transform="translate(421,354)"/>
<path d="M0 0 C0.66 0 1.32 0 2 0 C2 2.97 2 5.94 2 9 C1.34 8.67 0.68 8.34 0 8 C-0.6875 4.5 -0.6875 4.5 -1 1 C-0.67 0.67 -0.34 0.34 0 0 Z " fill="#1B1A1A" transform="translate(526,274)"/>
<path d="M0 0 C3.7952131 1.49097658 5.61042731 3.75700849 8 7 C5 7 5 7 2.3125 4.625 C0 2 0 2 0 0 Z " fill="#2A2A29" transform="translate(636,256)"/>
<path d="M0 0 C-0.33 0.99 -0.66 1.98 -1 3 C-2.84765625 3.73046875 -2.84765625 3.73046875 -5.0625 4.1875 C-5.79597656 4.34605469 -6.52945312 4.50460937 -7.28515625 4.66796875 C-8.13400391 4.83232422 -8.13400391 4.83232422 -9 5 C-9 4.34 -9 3.68 -9 3 C-8.34 3 -7.68 3 -7 3 C-7 2.34 -7 1.68 -7 1 C-4.53721199 -0.231394 -2.7204945 -0.07159196 0 0 Z " fill="#161717" transform="translate(327,260)"/>
<path d="M0 0 C0.99 0.33 1.98 0.66 3 1 C2.34 1 1.68 1 1 1 C1.185625 1.598125 1.37125 2.19625 1.5625 2.8125 C2 5 2 5 1 8 C0.01 8 -0.98 8 -2 8 C-1.34 5.36 -0.68 2.72 0 0 Z " fill="#161616" transform="translate(594,273)"/>
<path d="M0 0 C0.99 0 1.98 0 3 0 C3 2.97 3 5.94 3 9 C0 6 0 6 -0.1875 2.8125 C-0.125625 1.884375 -0.06375 0.95625 0 0 Z " fill="#171717" transform="translate(848,765)"/>
<path d="M0 0 C0.33 0 0.66 0 1 0 C1.33 2.97 1.66 5.94 2 9 C1.01 9 0.02 9 -1 9 C-1.125 2.25 -1.125 2.25 0 0 Z " fill="#1D1D1D" transform="translate(391,644)"/>
<path d="M0 0 C-0.33 0.66 -0.66 1.32 -1 2 C-4.3 1.67 -7.6 1.34 -11 1 C-11 0.67 -11 0.34 -11 0 C-3.57142857 -1.28571429 -3.57142857 -1.28571429 0 0 Z " fill="#212121" transform="translate(362,417)"/>
<path d="M0 0 C0.95904856 3.83619425 0.91892116 5.32431536 0 9 C-0.99 9 -1.98 9 -3 9 C-2.01 6.03 -1.02 3.06 0 0 Z " fill="#1B1A1A" transform="translate(253,305)"/>
<path d="M0 0 C0.99 0 1.98 0 3 0 C3.125 2.875 3.125 2.875 3 6 C2.34 6.66 1.68 7.32 1 8 C-0.35439668 5.29120665 -0.06501451 2.99066732 0 0 Z " fill="#1A1919" transform="translate(570,245)"/>
<path d="M0 0 C0.66 0.33 1.32 0.66 2 1 C2 3.97 2 6.94 2 10 C0.4375 8.375 0.4375 8.375 -1 6 C-0.6875 2.75 -0.6875 2.75 0 0 Z " fill="#171717" transform="translate(851,786)"/>
<path d="M0 0 C0.33 0 0.66 0 1 0 C1.33 2.97 1.66 5.94 2 9 C1.01 9.495 1.01 9.495 0 10 C-1.125 3.375 -1.125 3.375 0 0 Z " fill="#1E1E1E" transform="translate(693,770)"/>
<path d="M0 0 C0.33 0 0.66 0 1 0 C1.33 2.97 1.66 5.94 2 9 C1.01 8.67 0.02 8.34 -1 8 C-1.125 2.25 -1.125 2.25 0 0 Z " fill="#1C1C1C" transform="translate(385,613)"/>
<path d="M0 0 C0.33 1.32 0.66 2.64 1 4 C0.01 4.495 0.01 4.495 -1 5 C-0.67 6.32 -0.34 7.64 0 9 C-0.99 9 -1.98 9 -3 9 C-2.01 6.03 -1.02 3.06 0 0 Z " fill="#191919" transform="translate(658,444)"/>
<path d="M0 0 C0.66 0.33 1.32 0.66 2 1 C-1.625 6.75 -1.625 6.75 -5 9 C-3.50163895 5.88801935 -1.80066242 2.9465385 0 0 Z " fill="#1D1D1D" transform="translate(562,380)"/>
<path d="M0 0 C0.66 0 1.32 0 2 0 C3.6875 2.3125 3.6875 2.3125 5 5 C4.67 5.99 4.34 6.98 4 8 C1.84622436 5.37801226 0.59927826 3.35595828 0 0 Z " fill="#161616" transform="translate(413,300)"/>
<path d="M0 0 C0.66 0.33 1.32 0.66 2 1 C1.67 3.31 1.34 5.62 1 8 C0.01 8 -0.98 8 -2 8 C-1.34 5.36 -0.68 2.72 0 0 Z " fill="#1B1B1A" transform="translate(598,260)"/>
</svg>
